<?xml version="1.0" standalone="no"?>
<!DOCTYPE svg PUBLIC "-//W3C//DTD SVG 1.1//EN" "http://www.w3.org/Graphics/SVG/1.1/DTD/svg11.dtd" >
<svg xmlns="http://www.w3.org/2000/svg" xmlns:xlink="http://www.w3.org/1999/xlink" version="1.1">
<metadata>
Created by FontForge 20170910 at Wed Dec 12 20:21:59 2007
 By Jimmy Wärting
Copyright (c) 2002 The Hoefler Type Foundry, Inc., dba Hoefler &#38; Frere-Jones. All Rights Reserved.
</metadata>
<defs>
<font id="GothamPro-LightItalic" horiz-adv-x="500" >
  <font-face 
    font-family="Gotham Pro Light"
    font-weight="400"
    font-style="italic"
    font-stretch="normal"
    units-per-em="1000"
    panose-1="2 0 5 3 4 0 0 9 0 4"
    ascent="800"
    descent="-200"
    x-height="510"
    cap-height="700"
    bbox="-121 -214 1206 898"
    underline-thickness="20"
    underline-position="-133"
    slope="-15"
    unicode-range="U+0020-FB04"
  />
<missing-glyph 
d="M0 0v700h500v-700h-500zM81 49h339l-170 255zM49 96l171 254l-171 254v-508zM450 96v508l-171 -254zM250 395l170 255h-339z" />
    <glyph glyph-name="fi" unicode="fi" horiz-adv-x="612" 
d="M55 0l125 465h-74l12 45h74l20 74q39 146 163 146q57 0 102 -24l-12 -44q-51 24 -92 24q-86 0 -115 -113l-17 -63h184l-12 -45h-184l-125 -465h-49zM394 0l137 510h49l-137 -510h-49zM561 643l18 67h61l-18 -67h-61z" />
    <glyph glyph-name="fl" unicode="fl" horiz-adv-x="612" 
d="M55 0l125 465h-74l12 45h74l20 74q39 146 163 146q57 0 102 -24l-12 -44q-51 24 -92 24q-86 0 -115 -113l-17 -63h184l-12 -45h-184l-125 -465h-49zM394 0l196 730h49l-196 -730h-49z" />
    <glyph glyph-name="ffi" unicode="ffi" horiz-adv-x="974" 
d="M55 0l125 465h-74l12 45h74l20 74q39 146 163 146q57 0 102 -24l-12 -44q-51 24 -92 24q-86 0 -115 -113l-17 -63h184l-12 -45h-184l-125 -465h-49zM417 0l125 465h-74l12 45h74l20 74q39 146 163 146q57 0 102 -24l-12 -44q-51 24 -92 24q-85 0 -115 -113l-17 -63h184
l-12 -45h-184l-125 -465h-49zM756 0l137 510h49l-137 -510h-49zM923 643l18 67h61l-18 -67h-61z" />
    <glyph glyph-name="ffl" unicode="ffl" horiz-adv-x="974" 
d="M55 0l125 465h-74l12 45h74l20 74q39 146 163 146q57 0 102 -24l-12 -44q-51 24 -92 24q-86 0 -115 -113l-17 -63h184l-12 -45h-184l-125 -465h-49zM417 0l125 465h-74l12 45h74l20 74q39 146 163 146q57 0 102 -24l-12 -44q-51 24 -92 24q-85 0 -115 -113l-17 -63h184
l-12 -45h-184l-125 -465h-49zM756 0l196 730h49l-196 -730h-49z" />
    <glyph glyph-name=".notdef" 
d="M0 0v700h500v-700h-500zM81 49h339l-170 255zM49 96l171 254l-171 254v-508zM450 96v508l-171 -254zM250 395l170 255h-339z" />
    <glyph glyph-name=".null" horiz-adv-x="0" 
 />
    <glyph glyph-name="nonmarkingreturn" horiz-adv-x="333" 
 />
    <glyph glyph-name="space" unicode=" " horiz-adv-x="300" 
 />
    <glyph glyph-name="exclam" unicode="!" horiz-adv-x="251" 
d="M24 0l23 85h66l-23 -85h-66zM92 183l105 447l19 70h58l-19 -70l-135 -447h-28z" />
    <glyph glyph-name="quotedbl" unicode="&#x22;" horiz-adv-x="410" 
d="M101 446l93 254h63v-5l-127 -249h-29zM281 446l93 254h63v-5l-127 -249h-29z" />
    <glyph glyph-name="numbersign" unicode="#" horiz-adv-x="678" 
d="M91 0l65 187h-121l12 47h125l83 236h-133l12 47h137l64 183h48l-64 -183h207l64 183h48l-64 -183h121l-12 -47h-125l-83 -236h133l-12 -47h-137l-65 -187h-48l65 187h-207l-65 -187h-48zM221 234h206l83 236h-207z" />
    <glyph glyph-name="dollar" unicode="$" horiz-adv-x="618" 
d="M190 -98l28 103q-136 21 -219 117l38 33q74 -86 198 -104l77 288q-98 37 -138.5 75.5t-40.5 98.5q0 80 66.5 133.5t165.5 53.5q16 0 44 -2l16 60h49l-18 -67q101 -19 172 -89l-36 -36q-61 61 -153 80l-73 -272q92 -33 132.5 -74t40.5 -102q0 -92 -75.5 -145t-198.5 -53
l-26 -98h-49zM278 47h11q86 0 141.5 40.5t55.5 105.5q0 42 -30 72.5t-103 59.5zM325 389l71 262q-12 2 -36 2q-75 0 -124.5 -39t-49.5 -96q0 -44 31.5 -72.5t107.5 -56.5z" />
    <glyph glyph-name="percent" unicode="%" horiz-adv-x="821" 
d="M65 0l682 700h60l-682 -700h-60zM588 -7q-60 0 -98.5 41.5t-38.5 101.5q0 86 56 152.5t135 66.5q60 0 98.5 -41.5t38.5 -101.5q0 -86 -56 -152.5t-135 -66.5zM592 36q56 0 97 53.5t41 117.5q0 48 -24 76.5t-68 28.5q-56 0 -97 -53.5t-41 -117.5q0 -48 24 -76.5t68 -28.5z
M230 346q-60 0 -98.5 41.5t-38.5 101.5q0 86 56 152.5t135 66.5q60 0 98.5 -41.5t38.5 -101.5q0 -86 -56 -152.5t-135 -66.5zM234 389q56 0 97 53.5t41 117.5q0 48 -24 76.5t-68 28.5q-56 0 -97 -53.5t-41 -117.5q0 -48 24 -76.5t68 -28.5z" />
    <glyph glyph-name="ampersand" unicode="&#x26;" horiz-adv-x="690" 
d="M572 -14l-85 121q-61 -60 -120 -88.5t-136 -28.5q-86 0 -143 47t-57 128q0 85 62.5 146.5t182.5 91.5q-47 76 -47 133q0 75 54.5 125.5t129.5 50.5q74 0 119 -40t45 -105q0 -131 -226 -192l142 -201q58 66 116 167l39 -23q-68 -112 -127 -178l90 -128zM237 36
q116 0 223 105l-159 225q-109 -26 -163 -78t-54 -117q0 -62 41.5 -98.5t111.5 -36.5zM326 411q200 52 200 154q0 46 -31.5 74.5t-83.5 28.5q-53 0 -92 -38.5t-39 -92.5q0 -56 46 -126z" />
    <glyph glyph-name="quotesingle" unicode="'" horiz-adv-x="230" 
d="M101 446l93 254h63v-5l-127 -249h-29z" />
    <glyph glyph-name="parenleft" unicode="(" horiz-adv-x="430" 
d="M273 -140q-174 155 -174 358q0 154 99.5 287.5t296.5 213.5l17 -37q-95 -41 -166.5 -95t-113 -115t-61.5 -124t-20 -129q0 -103 39 -179.5t111 -150.5z" />
    <glyph glyph-name="parenright" unicode=")" horiz-adv-x="430" 
d="M-47 -139l-17 37q95 41 166.5 95t113 115t61.5 124t20 129q0 103 -39 179.5t-111 150.5l28 29q174 -155 174 -358q0 -154 -99.5 -287.5t-296.5 -213.5z" />
    <glyph glyph-name="asterisk" unicode="*" horiz-adv-x="430" 
d="M270 406l-41 10l42 121l-121 -42l-12 41l129 24l-100 84l31 30l84 -97l24 125l41 -10l-42 -121l121 42l12 -41l-129 -24l100 -84l-31 -30l-84 97z" />
    <glyph glyph-name="plus" unicode="+" horiz-adv-x="639" 
d="M256 113l58 215h-217l13 48h217l57 215h50l-57 -215h217l-13 -48h-217l-58 -215h-50z" />
    <glyph glyph-name="comma" unicode="," horiz-adv-x="231" 
d="M-32 -106l-7 24q69 24 80 82h-27l23 85h66l-20 -74q-15 -52 -40 -77.5t-75 -39.5z" />
    <glyph glyph-name="hyphen" unicode="-" horiz-adv-x="409" 
d="M74 269l15 56h268l-15 -56h-268z" />
    <glyph glyph-name="period" unicode="." horiz-adv-x="231" 
d="M14 0l23 85h66l-23 -85h-66z" />
    <glyph glyph-name="slash" unicode="/" 
d="M-121 -128l716 926h54l-716 -926h-54z" />
    <glyph glyph-name="zero" unicode="0" horiz-adv-x="709" 
d="M317 -12q-112 0 -173.5 72.5t-61.5 189.5q0 114 46 220t130 174t184 68q112 0 173.5 -72.5t61.5 -189.5q0 -114 -46 -220t-130 -174t-184 -68zM320 35q79 0 150 61t112 156.5t41 197.5q0 94 -48 154.5t-136 60.5q-79 0 -150 -61t-112 -156.5t-41 -197.5q0 -94 48 -154.5
t136 -60.5z" />
    <glyph glyph-name="one" unicode="1" horiz-adv-x="334" 
d="M93 0l173 645l-147 -46l-2 47l176 59h41l-189 -705h-52z" />
    <glyph glyph-name="two" unicode="2" horiz-adv-x="588" 
d="M-19 0l9 39l418 325q64 50 93.5 90.5t29.5 87.5q0 53 -40 87t-110 34q-106 0 -200 -100l-37 32q111 115 239 115q89 0 145.5 -46.5t56.5 -120.5q0 -58 -35.5 -107t-109.5 -106l-362 -280h404l-13 -50h-488z" />
    <glyph glyph-name="three" unicode="3" horiz-adv-x="606" 
d="M250 -12q-87 0 -148.5 36.5t-91.5 100.5l43 24q59 -114 200 -114q93 0 154 49.5t61 126.5q0 66 -52.5 99.5t-143.5 33.5h-29l-11 26l312 282h-375l14 48h450l-10 -37l-307 -277q89 -4 148 -48.5t59 -122.5q0 -98 -80 -162.5t-193 -64.5z" />
    <glyph glyph-name="four" unicode="4" horiz-adv-x="645" 
d="M369 0l46 171h-379l-8 39l533 495h48l-131 -489h114l-12 -45h-114l-46 -171h-51zM99 216h328l109 406z" />
    <glyph glyph-name="five" unicode="5" horiz-adv-x="601" 
d="M252 -12q-153 0 -236 125l43 27q72 -107 196 -107q99 0 162.5 58t63.5 138q0 70 -47 110t-121 40q-82 0 -161 -44l-33 26l111 339h378l-14 -48h-332l-86 -259q23 13 64.5 23t72.5 10q102 0 162 -52.5t60 -142.5q0 -101 -79 -172t-204 -71z" />
    <glyph glyph-name="six" unicode="6" horiz-adv-x="640" 
d="M317 -12q-102 0 -166 64q-68 68 -68 193q0 112 38.5 208t101.5 159q100 100 224 100q126 0 204 -93l-38 -33q-70 79 -169 79t-181 -82q-49 -49 -83 -121.5t-39 -144.5q35 52 90.5 85t127.5 33q102 0 163 -60t61 -144q0 -99 -76 -171t-190 -72zM320 34q90 0 149.5 58
t59.5 139q0 62 -45 109t-128 47q-93 0 -153.5 -56.5t-60.5 -129.5q0 -72 46 -118q49 -49 132 -49z" />
    <glyph glyph-name="seven" unicode="7" horiz-adv-x="578" 
d="M80 0l471 650h-403l14 50h464l-11 -38l-475 -662h-60z" />
    <glyph glyph-name="eight" unicode="8" horiz-adv-x="641" 
d="M295 -10q-113 0 -184 53t-71 130q0 81 60 132.5t154 65.5q-46 17 -76.5 56t-30.5 93q0 81 72 135.5t177 54.5q101 0 166.5 -50t65.5 -129q0 -71 -52 -119.5t-129 -62.5q51 -18 87 -60t36 -98q0 -87 -78.5 -144t-196.5 -57zM298 37q98 0 158 43.5t60 112.5
q0 59 -55.5 101.5t-146.5 42.5q-99 0 -159.5 -46t-60.5 -112q0 -63 56 -102.5t148 -39.5zM375 380q93 0 146 44.5t53 103.5t-49.5 97t-128.5 38q-87 0 -141 -42t-54 -105q0 -58 49 -97t125 -39z" />
    <glyph glyph-name="nine" unicode="9" horiz-adv-x="640" 
d="M243 -13q-128 0 -210 99l38 33q75 -85 175 -85q108 0 199.5 103.5t102.5 241.5q-83 -123 -220 -123q-102 0 -162.5 60.5t-60.5 145.5q0 102 77 175.5t191 73.5q106 0 169.5 -67t63.5 -190q0 -102 -31.5 -191t-83 -148.5t-116.5 -93.5t-132 -34zM335 304q90 0 151 59.5
t61 136.5q0 75 -52 120t-126 45q-89 0 -149.5 -59.5t-60.5 -141.5q0 -65 44.5 -112.5t131.5 -47.5z" />
    <glyph glyph-name="colon" unicode=":" horiz-adv-x="241" 
d="M19 0l23 85h66l-23 -85h-66zM133 425l23 85h66l-23 -85h-66z" />
    <glyph glyph-name="semicolon" unicode=";" horiz-adv-x="241" 
d="M-27 -106l-7 24q69 24 80 82h-27l23 85h66l-20 -74q-15 -52 -40 -77.5t-75 -39.5zM133 425l23 85h66l-23 -85h-66z" />
    <glyph glyph-name="less" unicode="&#x3c;" horiz-adv-x="640" 
d="M478 91l-400 241l11 40l529 241l-15 -59l-458 -206l347 -208z" />
    <glyph glyph-name="equal" unicode="=" horiz-adv-x="640" 
d="M81 214l14 51h454l-14 -51h-454zM142 439l13 51h454l-13 -51h-454z" />
    <glyph glyph-name="greater" unicode="&#x3e;" horiz-adv-x="640" 
d="M51 91l15 59l458 206l-347 208l14 49l400 -241l-11 -40z" />
    <glyph glyph-name="question" unicode="?" horiz-adv-x="534" 
d="M128 0l23 85h66l-23 -85h-66zM194 183l30 162l7 5q113 8 181.5 56.5t68.5 126.5q0 61 -43 95t-109 34q-108 0 -196 -88l-32 34q101 101 232 101q92 0 146.5 -49t54.5 -126q0 -94 -75 -152t-190 -74l-43 -125h-32z" />
    <glyph glyph-name="at" unicode="@" horiz-adv-x="980" 
d="M486 -161q-191 0 -305.5 107.5t-114.5 284.5q0 127 66 238t179.5 177t245.5 66q181 0 286 -100t105 -253q0 -132 -65 -209t-141 -77q-52 0 -83 26.5t-38 73.5q-79 -102 -186 -102q-67 0 -112 45.5t-45 120.5q0 107 75 186t168 79q60 0 98.5 -30.5t55.5 -77.5l30 98
l47 -13l-75 -242q-8 -27 -8 -48q0 -36 20 -57.5t58 -21.5q59 0 112.5 66t53.5 183q0 138 -96 229.5t-260 91.5q-186 0 -321 -134t-135 -315q0 -162 105.5 -261t279.5 -99q108 0 207 45l14 -29q-105 -48 -221 -48zM445 118q76 0 141 64.5t65 142.5q0 57 -35 93.5t-93 36.5
q-78 0 -133.5 -64t-55.5 -152q0 -56 31 -88.5t80 -32.5z" />
    <glyph glyph-name="A" unicode="A" horiz-adv-x="759" 
d="M-34 0l515 705h50l137 -705h-53l-36 196h-413l-142 -196h-58zM200 243h369l-75 405z" />
    <glyph glyph-name="B" unicode="B" horiz-adv-x="717" 
d="M36 0l188 700h259q96 0 153 -42.5t57 -116.5t-52 -123.5t-133 -65.5q60 -16 97 -52t37 -94q0 -91 -79 -148.5t-212 -57.5h-315zM101 48h253q109 0 172 42t63 116q0 59 -51 91t-134 32h-228zM189 377h216q106 0 170 44t64 115q0 57 -42.5 86.5t-118.5 29.5h-215z" />
    <glyph glyph-name="C" unicode="C" horiz-adv-x="738" 
d="M378 -13q-120 0 -203 77.5t-83 206.5q0 112 55.5 214t153 164.5t209.5 62.5q92 0 157.5 -41.5t99.5 -109.5l-45 -24q-36 63 -86.5 95.5t-128.5 32.5q-148 0 -254.5 -120t-106.5 -272q0 -109 66.5 -173.5t170.5 -64.5q74 0 129.5 26.5t107.5 78.5l35 -32
q-116 -121 -277 -121z" />
    <glyph glyph-name="D" unicode="D" horiz-adv-x="771" 
d="M36 0l188 700h157q178 0 272 -94q77 -77 77 -200q0 -162 -109 -271q-64 -64 -156.5 -99.5t-199.5 -35.5h-229zM101 48h171q190 0 310 120q94 94 94 234q0 108 -65 171q-79 79 -233 79h-115z" />
    <glyph glyph-name="E" unicode="E" horiz-adv-x="649" 
d="M36 0l188 700h493l-13 -48h-441l-74 -275h396l-13 -48h-396l-75 -281h446l-13 -48h-498z" />
    <glyph glyph-name="F" unicode="F" horiz-adv-x="656" 
d="M36 0l188 700h493l-13 -48h-441l-77 -287h396l-13 -48h-396l-85 -317h-52z" />
    <glyph glyph-name="G" unicode="G" horiz-adv-x="786" 
d="M396 -13q-132 0 -217 81t-85 214q0 108 55 206.5t154.5 161t217.5 62.5q173 0 256 -130l-41 -27q-35 53 -85 81.5t-135 28.5q-102 0 -188 -56t-133 -143t-47 -182q0 -116 69 -183t182 -67q116 0 202 57l64 224h-233l13 48h284l-86 -301q-115 -75 -247 -75z" />
    <glyph glyph-name="H" unicode="H" horiz-adv-x="756" 
d="M36 0l188 700h52l-87 -324h443l87 324h52l-188 -700h-52l88 328h-443l-88 -328h-52z" />
    <glyph glyph-name="I" unicode="I" horiz-adv-x="274" 
d="M43 0l188 700h52l-188 -700h-52z" />
    <glyph glyph-name="J" unicode="J" horiz-adv-x="538" 
d="M196 -10q-83 0 -132.5 44t-68.5 117l46 16q40 -130 153 -130q75 0 127 52q50 50 78 153l123 458h52l-125 -465q-31 -117 -93 -179q-66 -66 -160 -66z" />
    <glyph glyph-name="K" unicode="K" horiz-adv-x="714" 
d="M36 0l188 700h52l-122 -455l560 455h77l-389 -313l212 -387h-60l-195 357l-224 -182l-47 -175h-52z" />
    <glyph glyph-name="L" unicode="L" horiz-adv-x="600" 
d="M36 0l188 700h52l-175 -652h411l-13 -48h-463z" />
    <glyph glyph-name="M" unicode="M" horiz-adv-x="869" 
d="M36 0l188 700h43l170 -414l392 414h55l-188 -700h-52l163 608l-385 -403h-4l-169 403l-163 -608h-50z" />
    <glyph glyph-name="N" unicode="N" horiz-adv-x="786" 
d="M36 0l188 700h48l315 -613l165 613h50l-188 -700h-38l-322 626l-168 -626h-50z" />
    <glyph glyph-name="O" unicode="O" horiz-adv-x="846" 
d="M398 -13q-131 0 -216.5 86.5t-85.5 214.5q0 108 53.5 206t147 158t202.5 60q131 0 216.5 -86.5t85.5 -214.5q0 -108 -53.5 -206t-147 -158t-202.5 -60zM398 34q96 0 177 54t126.5 140.5t45.5 182.5q0 109 -69 181.5t-179 72.5q-96 0 -177 -54t-126.5 -140.5t-45.5 -182.5
q0 -109 69 -181.5t179 -72.5z" />
    <glyph glyph-name="P" unicode="P" horiz-adv-x="663" 
d="M36 0l188 700h218q130 0 193 -63q48 -48 48 -125q0 -118 -93 -184t-253 -66h-178l-71 -262h-52zM171 309h168q141 0 216.5 52.5t75.5 148.5q0 57 -36 93q-49 49 -154 49h-178z" />
    <glyph glyph-name="Q" unicode="Q" horiz-adv-x="846" 
d="M692 -24l-72 85q-103 -74 -222 -74q-131 0 -216.5 86.5t-85.5 214.5q0 108 53.5 206t147 158t202.5 60q131 0 216.5 -86.5t85.5 -214.5q0 -90 -39 -175t-107 -146l75 -82zM398 34q103 0 190 63l-117 130l38 33l114 -134q58 54 91 129.5t33 155.5q0 109 -69 181.5
t-179 72.5q-96 0 -177 -54t-126.5 -140.5t-45.5 -182.5q0 -109 69 -181.5t179 -72.5z" />
    <glyph glyph-name="R" unicode="R" horiz-adv-x="713" 
d="M36 0l188 700h251q126 0 188 -62q44 -44 44 -114q0 -84 -62 -146q-68 -68 -206 -83l154 -295h-60l-150 290h-217l-78 -290h-52zM178 337h210q149 0 220 71q47 47 47 113q0 52 -31 83q-48 48 -151 48h-210z" />
    <glyph glyph-name="S" unicode="S" horiz-adv-x="638" 
d="M299 -10q-184 0 -279 134l40 29q46 -59 104 -87.5t140 -28.5q86 0 144 43.5t58 109.5q0 46 -34 77t-119 64q-111 43 -155.5 83t-44.5 103q0 81 70 137t181 56q76 0 139.5 -29.5t103.5 -77.5l-40 -32q-80 92 -208 92q-87 0 -140 -42t-53 -100q0 -47 38 -77.5t129 -65.5
q100 -38 143 -79.5t43 -104.5q0 -86 -74 -145t-186 -59z" />
    <glyph glyph-name="T" unicode="T" horiz-adv-x="615" 
d="M209 0l175 652h-244l13 48h540l-13 -48h-244l-175 -652h-52z" />
    <glyph glyph-name="U" unicode="U" horiz-adv-x="756" 
d="M348 -11q-122 0 -187 61t-65 159q0 54 14 108l102 383h52l-108 -407q-9 -36 -9 -80q0 -79 52 -128t153 -49q99 0 171 72q65 65 98 186l109 406h52l-112 -417q-35 -130 -111 -206q-88 -88 -211 -88z" />
    <glyph glyph-name="V" unicode="V" horiz-adv-x="714" 
d="M259 -5l-117 705h54l99 -644l446 644h59l-495 -705h-46z" />
    <glyph glyph-name="W" unicode="W" horiz-adv-x="1074" 
d="M215 -5l-65 705h54l53 -623l372 625h40l38 -625l387 623h58l-443 -705h-42l-42 608l-368 -608h-42z" />
    <glyph glyph-name="X" unicode="X" horiz-adv-x="692" 
d="M-23 0l366 362l-186 338h56l167 -308l310 308h67l-352 -347l192 -353h-56l-173 323l-324 -323h-67z" />
    <glyph glyph-name="Y" unicode="Y" horiz-adv-x="668" 
d="M234 0l76 284l-183 416h57l161 -376l364 376h70l-421 -429l-72 -271h-52z" />
    <glyph glyph-name="Z" unicode="Z" horiz-adv-x="662" 
d="M-19 0l8 29l636 624h-452l13 47h533l-8 -29l-636 -624h472l-13 -47h-553z" />
    <glyph glyph-name="bracketleft" unicode="[" horiz-adv-x="430" 
d="M16 -130l223 830h273l-11 -38h-227l-202 -754h227l-10 -38h-273z" />
    <glyph glyph-name="backslash" unicode="\" 
d="M368 -128l-221 926h44l221 -926h-44z" />
    <glyph glyph-name="bracketright" unicode="]" horiz-adv-x="430" 
d="M-67 -130l11 38h227l202 754h-227l10 38h273l-223 -830h-273z" />
    <glyph glyph-name="asciicircum" unicode="^" 
d="M129 493l214 210h44l102 -210h-47l-83 167l-173 -167h-57z" />
    <glyph glyph-name="underscore" unicode="_" horiz-adv-x="600" 
d="M-114 -160l12 44h605l-12 -44h-605z" />
    <glyph glyph-name="grave" unicode="`" 
d="M368 595l-79 103l62 30l52 -133h-35z" />
    <glyph glyph-name="a" unicode="a" horiz-adv-x="571" 
d="M190 -12q-69 0 -118 37.5t-49 105.5q0 84 64 134.5t166 50.5q90 0 196 -29l4 14q7 26 7 51q0 58 -39.5 89t-114.5 31q-70 0 -148 -27l-9 44q81 29 161 29q93 0 145.5 -42.5t52.5 -116.5q0 -29 -10 -67l-78 -292h-48l23 88q-84 -100 -205 -100zM199 33q75 0 141.5 47.5
t86.5 122.5l12 45q-96 24 -193 24q-76 0 -123.5 -37.5t-47.5 -97.5q0 -47 33.5 -75.5t90.5 -28.5z" />
    <glyph glyph-name="b" unicode="b" horiz-adv-x="654" 
d="M312 -13q-79 0 -130 40.5t-73 102.5l-35 -130h-49l196 730h49l-87 -320q94 112 212 112q89 0 147 -60.5t58 -154.5q0 -134 -86 -227t-202 -93zM310 33q101 0 169 80t68 188q0 78 -44 126.5t-114 48.5q-96 0 -175.5 -82t-79.5 -183q0 -75 49.5 -126.5t126.5 -51.5z" />
    <glyph glyph-name="c" unicode="c" horiz-adv-x="563" 
d="M272 -12q-89 0 -155.5 60t-66.5 160q0 126 89.5 220t210.5 94q73 0 123.5 -35t76.5 -88l-41 -23q-57 100 -162 100q-97 0 -170.5 -80t-73.5 -185q0 -82 50.5 -129.5t121.5 -47.5q87 0 165 73l33 -32q-90 -87 -201 -87z" />
    <glyph glyph-name="d" unicode="d" horiz-adv-x="654" 
d="M259 -13q-89 0 -147 60.5t-58 154.5q0 134 86 227t202 93q79 0 130 -40.5t73 -102.5l94 351h49l-195 -730h-49l26 99q-94 -112 -211 -112zM265 33q96 0 175.5 82t79.5 183q0 75 -49.5 126.5t-126.5 51.5q-101 0 -169 -80t-68 -188q0 -78 44 -126.5t114 -48.5z" />
    <glyph glyph-name="e" unicode="e" horiz-adv-x="583" 
d="M272 -12q-98 0 -160 60t-62 154q0 123 87 221.5t208 98.5q92 0 142.5 -56t50.5 -139q0 -49 -14 -89h-419q-2 -22 -2 -34q0 -77 47 -123.5t122 -46.5q91 0 174 68l29 -35q-95 -79 -203 -79zM114 282h370q4 18 4 42q0 66 -36.5 109.5t-107.5 43.5q-82 0 -144.5 -56
t-85.5 -139z" />
    <glyph glyph-name="f" unicode="f" horiz-adv-x="362" 
d="M55 0l125 465h-74l12 45h74l20 74q39 146 163 146q57 0 102 -24l-12 -44q-51 24 -92 24q-86 0 -115 -113l-17 -63h184l-12 -45h-184l-125 -465h-49z" />
    <glyph glyph-name="g" unicode="g" horiz-adv-x="654" 
d="M236 -162q-67 0 -131 25.5t-110 69.5l36 36q90 -85 207 -85q100 0 157 57q45 45 70 134l18 64q-95 -101 -210 -101q-86 0 -149.5 54.5t-63.5 143.5q0 123 88 204.5t201 81.5q140 0 199 -136l33 124h49l-119 -447q-27 -99 -80 -152q-73 -73 -195 -73zM282 84
q95 0 169.5 70.5t74.5 157.5q0 65 -49.5 114t-129.5 49q-93 0 -163.5 -67t-70.5 -169q0 -73 50 -114t119 -41z" />
    <glyph glyph-name="h" unicode="h" horiz-adv-x="609" 
d="M25 0l196 730h49l-85 -315q89 107 193 107q76 0 121.5 -44.5t45.5 -117.5q0 -28 -11 -72l-76 -288h-49l78 292q8 30 8 63q0 57 -35 90t-96 33q-67 0 -129 -54t-84 -136l-77 -288h-49z" />
    <glyph glyph-name="i" unicode="i" horiz-adv-x="250" 
d="M32 0l137 510h49l-137 -510h-49zM199 643l18 67h61l-18 -67h-61z" />
    <glyph glyph-name="j" unicode="j" horiz-adv-x="249" 
d="M-52 -163q-33 0 -63 10l12 44q28 -8 47 -8q56 0 75 69l150 558h49l-151 -562q-14 -53 -45 -82t-74 -29zM199 643l18 67h61l-18 -67h-61z" />
    <glyph glyph-name="k" unicode="k" horiz-adv-x="560" 
d="M25 0l196 730h49l-145 -541l396 321h71l-284 -228l152 -282h-57l-136 252l-160 -128l-33 -124h-49z" />
    <glyph glyph-name="l" unicode="l" horiz-adv-x="250" 
d="M32 0l196 730h49l-196 -730h-49z" />
    <glyph glyph-name="m" unicode="m" horiz-adv-x="951" 
d="M25 0l136 510h49l-25 -95q43 53 84.5 80t98.5 27q64 0 102 -36.5t47 -88.5q76 125 214 125q69 0 114 -45.5t45 -116.5q0 -20 -13 -72l-76 -288h-49l78 292q8 30 8 63q0 56 -33 89.5t-88 33.5q-62 0 -122 -54.5t-81 -135.5l-76 -288h-49l78 292q8 30 8 63q0 56 -33 89.5
t-88 33.5q-62 0 -122 -54.5t-81 -135.5l-77 -288h-49z" />
    <glyph glyph-name="n" unicode="n" horiz-adv-x="611" 
d="M25 0l136 510h49l-25 -95q89 107 193 107q76 0 121.5 -44.5t45.5 -117.5q0 -28 -11 -72l-76 -288h-49l78 292q8 30 8 63q0 57 -35 90t-96 33q-67 0 -129 -54t-84 -136l-77 -288h-49z" />
    <glyph glyph-name="o" unicode="o" horiz-adv-x="633" 
d="M278 -12q-101 0 -164 63.5t-63 162.5q0 122 91 215t212 93q101 0 164 -63.5t63 -162.5q0 -124 -92 -216t-211 -92zM283 34q95 0 170 78t75 182q0 85 -49 133.5t-130 48.5q-97 0 -171 -79t-74 -181q0 -85 49 -133.5t130 -48.5z" />
    <glyph glyph-name="p" unicode="p" horiz-adv-x="654" 
d="M-18 -160l180 670h48l-27 -100q94 112 212 112q89 0 147 -60.5t58 -154.5q0 -134 -86 -227t-202 -93q-79 0 -130 40.5t-73 102.5l-78 -290h-49zM310 33q101 0 169 80t68 188q0 78 -44 126.5t-114 48.5q-96 0 -175.5 -82t-79.5 -183q0 -75 49.5 -126.5t126.5 -51.5z" />
    <glyph glyph-name="q" unicode="q" horiz-adv-x="654" 
d="M391 -200l80 300q-94 -113 -212 -113q-89 0 -147 60.5t-58 154.5q0 134 86 227t202 93q80 0 130.5 -40.5t72.5 -101.5l35 130h49l-189 -710h-49zM265 33q96 0 175.5 82.5t79.5 183.5q0 75 -49.5 126t-126.5 51q-101 0 -169 -80t-68 -188q0 -78 44 -126.5t114 -48.5z" />
    <glyph glyph-name="r" unicode="r" horiz-adv-x="396" 
d="M25 0l136 510h49l-38 -145q115 161 262 153l-14 -54h-4q-92 0 -173.5 -69t-112.5 -186l-56 -209h-49z" />
    <glyph glyph-name="s" unicode="s" horiz-adv-x="495" 
d="M217 -11q-128 0 -216 88l35 35q81 -78 187 -78q51 0 91.5 28.5t40.5 72.5q0 31 -23.5 54t-87.5 47q-76 28 -109.5 58.5t-33.5 78.5q0 62 52.5 105t136.5 43q103 0 184 -68l-32 -37q-73 60 -157 60q-61 0 -96.5 -28t-35.5 -67q0 -31 23 -52t92 -48q76 -30 107.5 -61
t31.5 -77q0 -66 -56 -110t-134 -44z" />
    <glyph glyph-name="t" unicode="t" horiz-adv-x="396" 
d="M206 -9q-54 0 -88 25.5t-34 75.5q0 23 6 49l87 324h-74l12 45h74l44 163h49l-44 -163h176l-12 -45h-176l-87 -325q-5 -22 -5 -43q0 -61 83 -61q32 0 74 16l-13 -48q-35 -13 -72 -13z" />
    <glyph glyph-name="u" unicode="u" horiz-adv-x="609" 
d="M231 -12q-76 0 -121.5 44.5t-45.5 117.5q0 28 11 72l76 288h49l-78 -292q-8 -30 -8 -63q0 -57 35 -90t96 -33q67 0 129 54t84 136l77 288h49l-136 -510h-49l25 95q-89 -107 -193 -107z" />
    <glyph glyph-name="v" unicode="v" horiz-adv-x="557" 
d="M179 -4l-90 514h53l71 -455l313 455h59l-364 -514h-42z" />
    <glyph glyph-name="w" unicode="w" horiz-adv-x="845" 
d="M148 -4l-49 514h50l37 -444l273 446h39l35 -446l275 444h54l-325 -514h-43l-35 437l-270 -437h-41z" />
    <glyph glyph-name="x" unicode="x" horiz-adv-x="559" 
d="M-29 0l284 264l-135 246h56l112 -215l224 215h66l-268 -250l141 -260h-56l-118 229l-240 -229h-66z" />
    <glyph glyph-name="y" unicode="y" horiz-adv-x="568" 
d="M20 -163q-58 0 -108 35l27 40q36 -29 87 -29q40 0 78.5 27.5t84.5 92.5l-104 507h52l89 -456l307 456h59l-363 -528q-54 -78 -103.5 -111.5t-105.5 -33.5z" />
    <glyph glyph-name="z" unicode="z" horiz-adv-x="546" 
d="M-17 0l8 28l475 438h-344l12 44h424l-8 -28l-475 -438h361l-12 -44h-441z" />
    <glyph glyph-name="braceleft" unicode="{" horiz-adv-x="480" 
d="M312 -141q-82 18 -120 63t-38 104q0 36 23 120q9 32 9 55q0 67 -95 67h-26l10 38h26q77 0 112.5 40.5t56.5 143.5q21 108 79.5 162.5t191.5 62.5l-3 -37q-105 -6 -153.5 -53t-66.5 -140q-20 -103 -53.5 -146t-99.5 -54q69 -21 69 -83q0 -27 -9 -57q-22 -75 -22 -115
q0 -106 123 -140z" />
    <glyph glyph-name="bar" unicode="|" horiz-adv-x="286" 
d="M141 -128v926h44v-926h-44z" />
    <glyph glyph-name="braceright" unicode="}" horiz-adv-x="480" 
d="M-44 -141l3 37q105 6 153.5 53t66.5 140q20 103 53.5 146t99.5 54q-69 21 -69 83q0 27 9 57q22 75 22 115q0 106 -123 140l14 31q82 -18 120 -63t38 -104q0 -36 -23 -120q-9 -32 -9 -55q0 -67 95 -67h26l-10 -38h-26q-77 0 -112.5 -40.5t-56.5 -143.5
q-22 -108 -80 -162.5t-191 -62.5z" />
    <glyph glyph-name="asciitilde" unicode="~" horiz-adv-x="460" 
d="M125 245l-38 15q25 50 49 73t55 23q20 0 33.5 -8t33.5 -27q31 -30 48 -30q15 0 27.5 14t31.5 46l38 -15q-25 -50 -49 -73t-55 -23q-20 0 -33.5 8t-33.5 27q-31 30 -48 30q-15 0 -27.5 -14t-31.5 -46z" />
    <glyph glyph-name="uni00A0" unicode="&#xa0;" horiz-adv-x="300" 
 />
    <glyph glyph-name="exclamdown" unicode="&#xa1;" horiz-adv-x="251" 
d="M28 0l19 70l135 447h28l-105 -447l-19 -70h-58zM189 615l23 85h66l-23 -85h-66z" />
    <glyph glyph-name="cent" unicode="&#xa2;" horiz-adv-x="558" 
d="M160 -6l44 111q-59 25 -94 78t-35 120q0 130 90 224t215 94q18 0 27 -1l34 86h50l-38 -94q95 -24 135 -113l-41 -23q-42 76 -114 93l-170 -433q17 -3 36 -3q98 0 179 73l33 -32q-94 -87 -215 -87q-22 0 -47 5l-39 -98h-50zM223 148l168 427h-14q-103 0 -176 -80t-73 -191
q0 -54 25 -95.5t70 -60.5z" />
    <glyph glyph-name="sterling" unicode="&#xa3;" horiz-adv-x="624" 
d="M-2 0l7 25l91 20l70 260h-86l13 48h86l35 131q27 102 80 155q68 68 163 68q126 0 186 -110l-43 -26q-55 89 -146 89q-71 0 -121 -50q-46 -46 -70 -135l-33 -122h298l-13 -48h-298l-69 -258h374l-13 -47h-511z" />
    <glyph glyph-name="currency" unicode="&#xa4;" horiz-adv-x="684" 
d="M372 -12q-103 0 -170.5 69.5t-72.5 187.5h-92l13 48h80q3 65 21 123h-69l13 48h73q45 111 130.5 179.5t194.5 68.5q83 0 139 -44t80 -115l-45 -18q-27 64 -69.5 97t-113.5 33q-82 0 -151.5 -55t-109.5 -146h301l-13 -48h-306q-19 -62 -22 -123h296l-13 -48h-283
q5 -95 55 -152.5t135 -57.5q113 0 201 98l35 -30q-103 -115 -237 -115z" />
    <glyph glyph-name="yen" unicode="&#xa5;" horiz-adv-x="700" 
d="M251 0l33 125h-210l12 45h210l26 98h-210l12 45h190l-170 387h59l161 -376l364 376h68l-380 -387h184l-12 -45h-214l-26 -98h214l-12 -45h-214l-33 -125h-52z" />
    <glyph glyph-name="brokenbar" unicode="&#xa6;" horiz-adv-x="222" 
d="M138 411h-54v250h54v-250zM138 -89h-54v250h54v-250z" />
    <glyph glyph-name="section" unicode="&#xa7;" horiz-adv-x="632" 
d="M288 -10q-66 0 -126 23.5t-95 58.5l33 37q33 -31 85 -52.5t110 -21.5q52 0 87 21.5t35 56.5q0 31 -32 54t-107 49q-100 35 -144 67t-44 79q0 58 56 93t142 35q-77 34 -77 96q0 57 52 90.5t129 33.5q66 0 126 -23.5t95 -58.5l-33 -37q-33 31 -85 52.5t-110 21.5
q-52 0 -87 -21.5t-35 -56.5q0 -31 32 -54t107 -49q100 -35 144 -67t44 -79q0 -58 -56 -93t-142 -35q77 -34 77 -96q0 -57 -52 -90.5t-129 -33.5zM392 245q62 0 104 26t42 63q0 29 -30.5 52t-102.5 48q-62 21 -117 21q-62 0 -104 -26t-42 -63q0 -29 30.5 -52t102.5 -48
q60 -21 117 -21z" />
    <glyph glyph-name="dieresis" unicode="&#xa8;" 
d="M213 595l22 80h69l-22 -80h-69zM376 595l22 80h69l-22 -80h-69z" />
    <glyph glyph-name="copyright" unicode="&#xa9;" horiz-adv-x="830" 
d="M439 -12q-151 0 -256 106t-105 255t106 256t257 107t256 -106t105 -255t-106 -256t-257 -107zM439 16q141 0 237 98t96 237t-95 236t-236 97t-237 -98t-96 -237t95 -236t236 -97zM444 166q-77 0 -129.5 55t-52.5 134q0 78 52.5 134t130.5 56q77 0 141 -61l-30 -31
q-54 52 -112 52q-60 0 -99 -43.5t-39 -105.5t40.5 -106t98.5 -44q60 0 115 52l28 -28q-66 -64 -144 -64z" />
    <glyph glyph-name="ordfeminine" unicode="&#xaa;" horiz-adv-x="390" 
d="M58 293l10 40h244l-10 -40h-244zM191 410q-36 0 -60.5 20.5t-24.5 54.5q0 48 36.5 77t94.5 29q39 0 97 -15l2 6q4 14 4 27q0 58 -78 58q-38 0 -80 -15l-7 35q48 17 94 17q53 0 82 -23.5t29 -64.5q0 -13 -6 -39l-43 -161h-40l14 50q-51 -56 -114 -56zM201 442
q38 0 75 27.5t47 64.5l4 14q-50 12 -90 12q-39 0 -64 -20t-25 -51q0 -21 14.5 -34t38.5 -13z" />
    <glyph glyph-name="guillemotleft" unicode="&#xab;" horiz-adv-x="515" 
d="M149 42l-104 209l2 8l216 209l36 -28l-192 -192l83 -184zM353 42l-104 209l2 8l216 209l36 -28l-192 -192l83 -184z" />
    <glyph glyph-name="logicalnot" unicode="&#xac;" horiz-adv-x="640" 
d="M524 259h-50l48 180h-404l14 51h454z" />
    <glyph glyph-name="uni00AD" unicode="&#xad;" horiz-adv-x="409" 
d="M74 269l15 56h268l-15 -56h-268z" />
    <glyph glyph-name="registered" unicode="&#xae;" horiz-adv-x="830" 
d="M439 -12q-151 0 -256 106t-105 255t106 256t257 107t256 -106t105 -255t-106 -256t-257 -107zM439 16q141 0 237 98t96 237t-95 236t-236 97t-237 -98t-96 -237t95 -236t236 -97zM301 177v366h164q59 0 97 -29t38 -77q0 -43 -27 -70t-73 -36l122 -154h-56l-116 147h-106
v-147h-43zM344 364h114q43 0 70 18.5t27 52.5q0 31 -24.5 49t-67.5 18h-119v-138z" />
    <glyph glyph-name="macron" unicode="&#xaf;" 
d="M190 600l14 53h300l-14 -53h-300z" />
    <glyph glyph-name="degree" unicode="&#xb0;" horiz-adv-x="366" 
d="M214 411q-55 0 -90.5 36t-35.5 90q0 67 49.5 117.5t116.5 50.5q55 0 90.5 -36t35.5 -90q0 -67 -49.5 -117.5t-116.5 -50.5zM219 453q46 0 81 36.5t35 84.5q0 41 -24 65t-62 24q-46 0 -81 -36.5t-35 -84.5q0 -41 24 -65t62 -24z" />
    <glyph glyph-name="plusminus" unicode="&#xb1;" horiz-adv-x="640" 
d="M567 294h-222l-47 -178h-53l47 178h-222l13 48h222l48 177h53l-48 -177h222zM494 22h-497l13 48h497z" />
    <glyph glyph-name="twosuperior" unicode="&#xb2;" 
d="M0 0v700h500v-700h-500zM81 49h339l-170 255zM49 96l171 254l-171 254v-508zM450 96v508l-171 -254zM250 395l170 255h-339z" />
    <glyph glyph-name="threesuperior" unicode="&#xb3;" 
d="M0 0v700h500v-700h-500zM81 49h339l-170 255zM49 96l171 254l-171 254v-508zM450 96v508l-171 -254zM250 395l170 255h-339z" />
    <glyph glyph-name="acute" unicode="&#xb4;" 
d="M251 595l124 133l62 -30l-135 -103h-51z" />
    <glyph glyph-name="mu" unicode="&#xb5;" horiz-adv-x="623" 
d="M226 -12q-96 0 -131 91l-63 -239h-49l179 670h49l-81 -303q-9 -33 -9 -61q0 -53 31.5 -83t92.5 -30q76 0 140.5 51.5t85.5 130.5l79 295h49l-136 -510h-49l24 89q-84 -101 -212 -101z" />
    <glyph glyph-name="paragraph" unicode="&#xb6;" horiz-adv-x="486" 
d="M260 0l70 263q-101 6 -164.5 50t-63.5 133q0 119 87 186.5t239 67.5h73l-188 -700h-53z" />
    <glyph glyph-name="periodcentered" unicode="&#xb7;" horiz-adv-x="231" 
d="M82 255l23 85h66l-23 -85h-66z" />
    <glyph glyph-name="cedilla" unicode="&#xb8;" 
d="M118 -148l-48 26l125 132h43z" />
    <glyph glyph-name="onesuperior" unicode="&#xb9;" 
d="M0 0v700h500v-700h-500zM81 49h339l-170 255zM49 96l171 254l-171 254v-508zM450 96v508l-171 -254zM250 395l170 255h-339z" />
    <glyph glyph-name="ordmasculine" unicode="&#xba;" horiz-adv-x="390" 
d="M60 293l10 40h268l-10 -40h-268zM245 407q-58 0 -94 36.5t-36 92.5q0 67 49.5 118t117.5 51q57 0 93.5 -36.5t36.5 -92.5q0 -67 -49.5 -118t-117.5 -51zM248 444q49 0 85 39t36 91q0 42 -25 68t-65 26q-50 0 -86 -39t-36 -91q0 -42 25.5 -68t65.5 -26z" />
    <glyph glyph-name="guillemotright" unicode="&#xbb;" horiz-adv-x="515" 
d="M47 41l-36 28l192 192l-83 184l41 22l104 -209l-2 -8zM251 41l-36 28l192 192l-83 184l41 22l104 -209l-2 -8z" />
    <glyph glyph-name="onequarter" unicode="&#xbc;" 
d="M0 0v700h500v-700h-500zM81 49h339l-170 255zM49 96l171 254l-171 254v-508zM450 96v508l-171 -254zM250 395l170 255h-339z" />
    <glyph glyph-name="onehalf" unicode="&#xbd;" 
d="M0 0v700h500v-700h-500zM81 49h339l-170 255zM49 96l171 254l-171 254v-508zM450 96v508l-171 -254zM250 395l170 255h-339z" />
    <glyph glyph-name="threequarters" unicode="&#xbe;" 
d="M0 0v700h500v-700h-500zM81 49h339l-170 255zM49 96l171 254l-171 254v-508zM450 96v508l-171 -254zM250 395l170 255h-339z" />
    <glyph glyph-name="questiondown" unicode="&#xbf;" horiz-adv-x="534" 
d="M252 -9q-92 0 -146.5 49t-54.5 126q0 94 75 152t190 74l43 125h32l-30 -162l-7 -5q-113 -8 -181.5 -56.5t-68.5 -126.5q0 -61 43 -95t109 -34q108 0 196 88l32 -34q-101 -101 -232 -101zM368 615l23 85h66l-23 -85h-66z" />
    <glyph glyph-name="Agrave" unicode="&#xc0;" horiz-adv-x="759" 
d="M-34 0l515 705h50l137 -705h-53l-36 196h-413l-142 -196h-58zM200 243h369l-75 405zM517 765l-79 103l62 30l52 -133h-35z" />
    <glyph glyph-name="Aacute" unicode="&#xc1;" horiz-adv-x="759" 
d="M-34 0l515 705h50l137 -705h-53l-36 196h-413l-142 -196h-58zM200 243h369l-75 405zM489 765l124 133l62 -30l-135 -103h-51z" />
    <glyph glyph-name="Acircumflex" unicode="&#xc2;" horiz-adv-x="759" 
d="M-34 0l515 705h50l137 -705h-53l-36 196h-413l-142 -196h-58zM200 243h369l-75 405zM401 765l133 122h40l67 -122h-44l-52 68l-96 -68h-48z" />
    <glyph glyph-name="Atilde" unicode="&#xc3;" horiz-adv-x="759" 
d="M-34 0l515 705h50l137 -705h-53l-36 196h-413l-142 -196h-58zM200 243h369l-75 405zM416 763l-38 15q25 50 49 73t55 23q20 0 33.5 -8t33.5 -27q31 -30 48 -30q15 0 27.5 13.5t31.5 46.5l38 -15q-25 -50 -49 -73t-55 -23q-20 0 -33.5 8t-33.5 27q-31 30 -48 30
q-15 0 -27.5 -13.5t-31.5 -46.5z" />
    <glyph glyph-name="Adieresis" unicode="&#xc4;" horiz-adv-x="759" 
d="M-34 0l515 705h50l137 -705h-53l-36 196h-413l-142 -196h-58zM200 243h369l-75 405zM412 765l22 80h69l-22 -80h-69zM575 765l22 80h69l-22 -80h-69z" />
    <glyph glyph-name="Aring" unicode="&#xc5;" horiz-adv-x="759" 
d="M-24 0l498 681q-46 22 -46 71q0 42 31.5 72t74.5 30q42 0 69 -23t27 -59t-23.5 -64t-59.5 -36l131 -672h-53l-36 196h-413l-142 -196h-58zM210 243h369l-75 405zM524 702q29 0 49.5 20.5t20.5 49.5q0 22 -15.5 36t-44.5 14t-49.5 -20.5t-20.5 -49.5q0 -22 15.5 -36
t44.5 -14z" />
    <glyph glyph-name="AE" unicode="&#xc6;" horiz-adv-x="1068" 
d="M-32 0l611 700h541l-13 -48h-431l-74 -275h386l-13 -48h-386l-75 -281h436l-13 -48h-488l53 196h-301l-170 -196h-63zM242 243h272l110 410h-27z" />
    <glyph glyph-name="Ccedilla" unicode="&#xc7;" horiz-adv-x="738" 
d="M271 -148l-48 26l107 113q-104 16 -171 90.5t-67 189.5q0 112 55.5 214t153 164.5t209.5 62.5q92 0 157.5 -41.5t99.5 -109.5l-45 -24q-36 63 -86.5 95.5t-128.5 32.5q-148 0 -254.5 -120t-106.5 -272q0 -109 66.5 -173.5t170.5 -64.5q74 0 129.5 26.5t107.5 78.5l35 -32
q-116 -121 -277 -121h-4z" />
    <glyph glyph-name="Egrave" unicode="&#xc8;" horiz-adv-x="649" 
d="M36 0l188 700h493l-13 -48h-441l-74 -275h396l-13 -48h-396l-75 -281h446l-13 -48h-498zM480 765l-79 103l62 30l52 -133h-35z" />
    <glyph glyph-name="Eacute" unicode="&#xc9;" horiz-adv-x="649" 
d="M36 0l188 700h493l-13 -48h-441l-74 -275h396l-13 -48h-396l-75 -281h446l-13 -48h-498zM413 765l124 133l62 -30l-135 -103h-51z" />
    <glyph glyph-name="Ecircumflex" unicode="&#xca;" horiz-adv-x="649" 
d="M36 0l188 700h493l-13 -48h-441l-74 -275h396l-13 -48h-396l-75 -281h446l-13 -48h-498zM355 765l133 122h40l67 -122h-44l-52 68l-96 -68h-48z" />
    <glyph glyph-name="Edieresis" unicode="&#xcb;" horiz-adv-x="649" 
d="M36 0l188 700h493l-13 -48h-441l-74 -275h396l-13 -48h-396l-75 -281h446l-13 -48h-498zM365 765l22 80h69l-22 -80h-69zM528 765l22 80h69l-22 -80h-69z" />
    <glyph glyph-name="Igrave" unicode="&#xcc;" horiz-adv-x="274" 
d="M43 0l188 700h52l-188 -700h-52zM264 765l-79 103l62 30l52 -133h-35z" />
    <glyph glyph-name="Iacute" unicode="&#xcd;" horiz-adv-x="274" 
d="M43 0l188 700h52l-188 -700h-52zM232 765l124 133l62 -30l-135 -103h-51z" />
    <glyph glyph-name="Icircumflex" unicode="&#xce;" horiz-adv-x="274" 
d="M43 0l188 700h52l-188 -700h-52zM148 765l133 122h40l67 -122h-44l-52 68l-96 -68h-48z" />
    <glyph glyph-name="Idieresis" unicode="&#xcf;" horiz-adv-x="274" 
d="M43 0l188 700h52l-188 -700h-52zM159 765l22 80h69l-22 -80h-69zM322 765l22 80h69l-22 -80h-69z" />
    <glyph glyph-name="Eth" unicode="&#xd0;" horiz-adv-x="801" 
d="M66 0l88 328h-75l13 48h75l87 324h157q178 0 272 -94q77 -77 77 -200q0 -162 -109 -271q-64 -64 -156.5 -99.5t-199.5 -35.5h-229zM131 48h171q190 0 310 120q94 94 94 234q0 108 -65 171q-79 79 -233 79h-115l-74 -276h232l-13 -48h-232z" />
    <glyph glyph-name="Ntilde" unicode="&#xd1;" horiz-adv-x="786" 
d="M36 0l188 700h48l315 -613l165 613h50l-188 -700h-38l-322 626l-168 -626h-50zM407 763l-38 15q25 50 49 73t55 23q20 0 33.5 -8t33.5 -27q31 -30 48 -30q15 0 27.5 13.5t31.5 46.5l38 -15q-25 -50 -49 -73t-55 -23q-20 0 -33.5 8t-33.5 27q-31 30 -48 30
q-15 0 -27.5 -13.5t-31.5 -46.5z" />
    <glyph glyph-name="Ograve" unicode="&#xd2;" horiz-adv-x="846" 
d="M398 -13q-131 0 -216.5 86.5t-85.5 214.5q0 108 53.5 206t147 158t202.5 60q131 0 216.5 -86.5t85.5 -214.5q0 -108 -53.5 -206t-147 -158t-202.5 -60zM398 34q96 0 177 54t126.5 140.5t45.5 182.5q0 109 -69 181.5t-179 72.5q-96 0 -177 -54t-126.5 -140.5t-45.5 -182.5
q0 -109 69 -181.5t179 -72.5zM546 765l-79 103l62 30l52 -133h-35z" />
    <glyph glyph-name="Oacute" unicode="&#xd3;" horiz-adv-x="846" 
d="M398 -13q-131 0 -216.5 86.5t-85.5 214.5q0 108 53.5 206t147 158t202.5 60q131 0 216.5 -86.5t85.5 -214.5q0 -108 -53.5 -206t-147 -158t-202.5 -60zM398 34q96 0 177 54t126.5 140.5t45.5 182.5q0 109 -69 181.5t-179 72.5q-96 0 -177 -54t-126.5 -140.5t-45.5 -182.5
q0 -109 69 -181.5t179 -72.5zM469 765l124 133l62 -30l-135 -103h-51z" />
    <glyph glyph-name="Ocircumflex" unicode="&#xd4;" horiz-adv-x="846" 
d="M398 -13q-131 0 -216.5 86.5t-85.5 214.5q0 108 53.5 206t147 158t202.5 60q131 0 216.5 -86.5t85.5 -214.5q0 -108 -53.5 -206t-147 -158t-202.5 -60zM398 34q96 0 177 54t126.5 140.5t45.5 182.5q0 109 -69 181.5t-179 72.5q-96 0 -177 -54t-126.5 -140.5t-45.5 -182.5
q0 -109 69 -181.5t179 -72.5zM420 765l133 122h40l67 -122h-44l-52 68l-96 -68h-48z" />
    <glyph glyph-name="Otilde" unicode="&#xd5;" horiz-adv-x="846" 
d="M398 -13q-131 0 -216.5 86.5t-85.5 214.5q0 108 53.5 206t147 158t202.5 60q131 0 216.5 -86.5t85.5 -214.5q0 -108 -53.5 -206t-147 -158t-202.5 -60zM398 34q96 0 177 54t126.5 140.5t45.5 182.5q0 109 -69 181.5t-179 72.5q-96 0 -177 -54t-126.5 -140.5t-45.5 -182.5
q0 -109 69 -181.5t179 -72.5zM421 763l-38 15q25 50 49 73t55 23q20 0 33.5 -8t33.5 -27q31 -30 48 -30q15 0 27.5 13.5t31.5 46.5l38 -15q-25 -50 -49 -73t-55 -23q-20 0 -33.5 8t-33.5 27q-31 30 -48 30q-15 0 -27.5 -13.5t-31.5 -46.5z" />
    <glyph glyph-name="Odieresis" unicode="&#xd6;" horiz-adv-x="846" 
d="M398 -13q-131 0 -216.5 86.5t-85.5 214.5q0 108 53.5 206t147 158t202.5 60q131 0 216.5 -86.5t85.5 -214.5q0 -108 -53.5 -206t-147 -158t-202.5 -60zM398 34q96 0 177 54t126.5 140.5t45.5 182.5q0 109 -69 181.5t-179 72.5q-96 0 -177 -54t-126.5 -140.5t-45.5 -182.5
q0 -109 69 -181.5t179 -72.5zM421 765l22 80h69l-22 -80h-69zM584 765l22 80h69l-22 -80h-69z" />
    <glyph glyph-name="multiply" unicode="&#xd7;" horiz-adv-x="640" 
d="M589 154l-37 -37l-197 198l-196 -198l-37 37l197 197l-197 197l37 37l196 -198l197 198l37 -37l-197 -197z" />
    <glyph glyph-name="Oslash" unicode="&#xd8;" horiz-adv-x="846" 
d="M398 -13q-144 0 -232 103l-114 -95h-69l157 131q-44 74 -44 162q0 108 53.5 206t147 158t202.5 60q140 0 227 -97l107 90h69l-149 -125q48 -77 48 -169q0 -108 -53.5 -206t-147 -158t-202.5 -60zM398 34q96 0 177 54t126.5 140.5t45.5 182.5q0 76 -34 136l-509 -425
q69 -88 194 -88zM180 159l508 424q-71 82 -189 82q-96 0 -177 -54t-126.5 -140.5t-45.5 -182.5q0 -72 30 -129z" />
    <glyph glyph-name="Ugrave" unicode="&#xd9;" horiz-adv-x="756" 
d="M348 -11q-122 0 -187 61t-65 159q0 54 14 108l102 383h52l-108 -407q-9 -36 -9 -80q0 -79 52 -128t153 -49q99 0 171 72q65 65 98 186l109 406h52l-112 -417q-35 -130 -111 -206q-88 -88 -211 -88zM506 765l-79 103l62 30l52 -133h-35z" />
    <glyph glyph-name="Uacute" unicode="&#xda;" horiz-adv-x="756" 
d="M348 -11q-122 0 -187 61t-65 159q0 54 14 108l102 383h52l-108 -407q-9 -36 -9 -80q0 -79 52 -128t153 -49q99 0 171 72q65 65 98 186l109 406h52l-112 -417q-35 -130 -111 -206q-88 -88 -211 -88zM439 765l124 133l62 -30l-135 -103h-51z" />
    <glyph glyph-name="Ucircumflex" unicode="&#xdb;" horiz-adv-x="756" 
d="M348 -11q-122 0 -187 61t-65 159q0 54 14 108l102 383h52l-108 -407q-9 -36 -9 -80q0 -79 52 -128t153 -49q99 0 171 72q65 65 98 186l109 406h52l-112 -417q-35 -130 -111 -206q-88 -88 -211 -88zM387 765l133 122h40l67 -122h-44l-52 68l-96 -68h-48z" />
    <glyph glyph-name="Udieresis" unicode="&#xdc;" horiz-adv-x="756" 
d="M348 -11q-122 0 -187 61t-65 159q0 54 14 108l102 383h52l-108 -407q-9 -36 -9 -80q0 -79 52 -128t153 -49q99 0 171 72q65 65 98 186l109 406h52l-112 -417q-35 -130 -111 -206q-88 -88 -211 -88zM392 765l22 80h69l-22 -80h-69zM555 765l22 80h69l-22 -80h-69z" />
    <glyph glyph-name="Yacute" unicode="&#xdd;" horiz-adv-x="668" 
d="M234 0l76 284l-183 416h57l161 -376l364 376h70l-421 -429l-72 -271h-52zM395 765l124 133l62 -30l-135 -103h-51z" />
    <glyph glyph-name="Thorn" unicode="&#xde;" horiz-adv-x="668" 
d="M36 0l188 700h51l-33 -127h166q130 0 193 -63q48 -48 48 -125q0 -118 -93 -184t-253 -66h-178l-37 -135h-52zM137 182h168q141 0 216.5 52.5t75.5 148.5q0 57 -36 93q-49 49 -154 49h-178z" />
    <glyph glyph-name="germandbls" unicode="&#xdf;" horiz-adv-x="620" 
d="M220 -2l12 44q130 1 195.5 46.5t65.5 113.5q0 107 -181 140l12 45q222 52 222 187q0 52 -37 84.5t-101 32.5q-73 0 -125.5 -54.5t-78.5 -151.5l-130 -485h-49l134 500q29 109 87 167q70 70 166 70q81 0 134 -45.5t53 -115.5q0 -152 -212 -211q159 -42 159 -164
q0 -89 -88 -146.5t-238 -56.5z" />
    <glyph glyph-name="agrave" unicode="&#xe0;" horiz-adv-x="571" 
d="M190 -12q-69 0 -118 37.5t-49 105.5q0 84 64 134.5t166 50.5q90 0 196 -29l4 14q7 26 7 51q0 58 -39.5 89t-114.5 31q-70 0 -148 -27l-9 44q81 29 161 29q93 0 145.5 -42.5t52.5 -116.5q0 -29 -10 -67l-78 -292h-48l23 88q-84 -100 -205 -100zM199 33q75 0 141.5 47.5
t86.5 122.5l12 45q-96 24 -193 24q-76 0 -123.5 -37.5t-47.5 -97.5q0 -47 33.5 -75.5t90.5 -28.5zM363 595l-79 103l62 30l52 -133h-35z" />
    <glyph glyph-name="aacute" unicode="&#xe1;" horiz-adv-x="571" 
d="M190 -12q-69 0 -118 37.5t-49 105.5q0 84 64 134.5t166 50.5q90 0 196 -29l4 14q7 26 7 51q0 58 -39.5 89t-114.5 31q-70 0 -148 -27l-9 44q81 29 161 29q93 0 145.5 -42.5t52.5 -116.5q0 -29 -10 -67l-78 -292h-48l23 88q-84 -100 -205 -100zM199 33q75 0 141.5 47.5
t86.5 122.5l12 45q-96 24 -193 24q-76 0 -123.5 -37.5t-47.5 -97.5q0 -47 33.5 -75.5t90.5 -28.5zM301 595l124 133l62 -30l-135 -103h-51z" />
    <glyph glyph-name="acircumflex" unicode="&#xe2;" horiz-adv-x="571" 
d="M190 -12q-69 0 -118 37.5t-49 105.5q0 84 64 134.5t166 50.5q90 0 196 -29l4 14q7 26 7 51q0 58 -39.5 89t-114.5 31q-70 0 -148 -27l-9 44q81 29 161 29q93 0 145.5 -42.5t52.5 -116.5q0 -29 -10 -67l-78 -292h-48l23 88q-84 -100 -205 -100zM199 33q75 0 141.5 47.5
t86.5 122.5l12 45q-96 24 -193 24q-76 0 -123.5 -37.5t-47.5 -97.5q0 -47 33.5 -75.5t90.5 -28.5zM246 595l133 122h40l67 -122h-44l-52 68l-96 -68h-48z" />
    <glyph glyph-name="atilde" unicode="&#xe3;" horiz-adv-x="571" 
d="M190 -12q-69 0 -118 37.5t-49 105.5q0 84 64 134.5t166 50.5q90 0 196 -29l4 14q7 26 7 51q0 58 -39.5 89t-114.5 31q-70 0 -148 -27l-9 44q81 29 161 29q93 0 145.5 -42.5t52.5 -116.5q0 -29 -10 -67l-78 -292h-48l23 88q-84 -100 -205 -100zM199 33q75 0 141.5 47.5
t86.5 122.5l12 45q-96 24 -193 24q-76 0 -123.5 -37.5t-47.5 -97.5q0 -47 33.5 -75.5t90.5 -28.5zM258 593l-38 15q25 50 49 73t55 23q20 0 33.5 -8t33.5 -27q31 -30 48 -30q15 0 27.5 13.5t31.5 46.5l38 -15q-25 -50 -49 -73t-55 -23q-20 0 -33.5 8t-33.5 27q-31 30 -48 30
q-15 0 -27.5 -13.5t-31.5 -46.5z" />
    <glyph glyph-name="adieresis" unicode="&#xe4;" horiz-adv-x="571" 
d="M190 -12q-69 0 -118 37.5t-49 105.5q0 84 64 134.5t166 50.5q90 0 196 -29l4 14q7 26 7 51q0 58 -39.5 89t-114.5 31q-70 0 -148 -27l-9 44q81 29 161 29q93 0 145.5 -42.5t52.5 -116.5q0 -29 -10 -67l-78 -292h-48l23 88q-84 -100 -205 -100zM199 33q75 0 141.5 47.5
t86.5 122.5l12 45q-96 24 -193 24q-76 0 -123.5 -37.5t-47.5 -97.5q0 -47 33.5 -75.5t90.5 -28.5zM248 595l22 80h69l-22 -80h-69zM411 595l22 80h69l-22 -80h-69z" />
    <glyph glyph-name="aring" unicode="&#xe5;" horiz-adv-x="571" 
d="M190 -12q-69 0 -118 37.5t-49 105.5q0 84 64 134.5t166 50.5q90 0 196 -29l4 14q7 26 7 51q0 58 -39.5 89t-114.5 31q-70 0 -148 -27l-9 44q81 29 161 29q93 0 145.5 -42.5t52.5 -116.5q0 -29 -10 -67l-78 -292h-48l23 88q-84 -100 -205 -100zM199 33q75 0 141.5 47.5
t86.5 122.5l12 45q-96 24 -193 24q-76 0 -123.5 -37.5t-47.5 -97.5q0 -47 33.5 -75.5t90.5 -28.5zM384 595q-42 0 -69 23t-27 59q0 42 31.5 72t74.5 30q42 0 69 -23t27 -59q0 -42 -31.5 -72t-74.5 -30zM384 627q29 0 49.5 20.5t20.5 49.5q0 22 -15.5 36t-44.5 14
t-49.5 -20.5t-20.5 -49.5q0 -22 15.5 -36t44.5 -14z" />
    <glyph glyph-name="ae" unicode="&#xe6;" horiz-adv-x="965" 
d="M200 -12q-77 0 -127 39t-50 109q0 82 66 131t168 49q97 0 192 -29l4 14q7 26 7 51q0 58 -39.5 89t-114.5 31q-70 0 -148 -27l-9 44q81 29 161 29t130.5 -32t63.5 -89q42 57 100.5 91t124.5 34q92 0 142.5 -56t50.5 -139q0 -49 -14 -89h-419q-2 -22 -2 -34
q0 -77 47 -123.5t122 -46.5q91 0 174 68l29 -35q-95 -79 -200 -79q-75 0 -127.5 33.5t-76.5 91.5q-120 -125 -255 -125zM204 33q123 0 238 125q-4 20 -4 48q0 22 3 43q-81 23 -191 23q-76 0 -125.5 -37t-49.5 -93q0 -50 34 -79.5t95 -29.5zM498 282h370q4 18 4 42
q0 66 -36.5 109.5t-107.5 43.5q-82 0 -144.5 -56t-85.5 -139z" />
    <glyph glyph-name="ccedilla" unicode="&#xe7;" horiz-adv-x="563" 
d="M166 -148l-48 26l108 114q-75 15 -125.5 72t-50.5 144q0 126 89.5 220t210.5 94q73 0 123.5 -35t76.5 -88l-41 -23q-57 100 -162 100q-97 0 -170.5 -80t-73.5 -185q0 -82 50.5 -129.5t121.5 -47.5q87 0 165 73l33 -32q-90 -87 -201 -87h-3z" />
    <glyph glyph-name="egrave" unicode="&#xe8;" horiz-adv-x="583" 
d="M272 -12q-98 0 -160 60t-62 154q0 123 87 221.5t208 98.5q92 0 142.5 -56t50.5 -139q0 -49 -14 -89h-419q-2 -22 -2 -34q0 -77 47 -123.5t122 -46.5q91 0 174 68l29 -35q-95 -79 -203 -79zM114 282h370q4 18 4 42q0 66 -36.5 109.5t-107.5 43.5q-82 0 -144.5 -56
t-85.5 -139zM367 595l-79 103l62 30l52 -133h-35z" />
    <glyph glyph-name="eacute" unicode="&#xe9;" horiz-adv-x="583" 
d="M272 -12q-98 0 -160 60t-62 154q0 123 87 221.5t208 98.5q92 0 142.5 -56t50.5 -139q0 -49 -14 -89h-419q-2 -22 -2 -34q0 -77 47 -123.5t122 -46.5q91 0 174 68l29 -35q-95 -79 -203 -79zM114 282h370q4 18 4 42q0 66 -36.5 109.5t-107.5 43.5q-82 0 -144.5 -56
t-85.5 -139zM310 595l124 133l62 -30l-135 -103h-51z" />
    <glyph glyph-name="ecircumflex" unicode="&#xea;" horiz-adv-x="583" 
d="M272 -12q-98 0 -160 60t-62 154q0 123 87 221.5t208 98.5q92 0 142.5 -56t50.5 -139q0 -49 -14 -89h-419q-2 -22 -2 -34q0 -77 47 -123.5t122 -46.5q91 0 174 68l29 -35q-95 -79 -203 -79zM114 282h370q4 18 4 42q0 66 -36.5 109.5t-107.5 43.5q-82 0 -144.5 -56
t-85.5 -139zM244 595l133 122h40l67 -122h-44l-52 68l-96 -68h-48z" />
    <glyph glyph-name="edieresis" unicode="&#xeb;" horiz-adv-x="583" 
d="M272 -12q-98 0 -160 60t-62 154q0 123 87 221.5t208 98.5q92 0 142.5 -56t50.5 -139q0 -49 -14 -89h-419q-2 -22 -2 -34q0 -77 47 -123.5t122 -46.5q91 0 174 68l29 -35q-95 -79 -203 -79zM114 282h370q4 18 4 42q0 66 -36.5 109.5t-107.5 43.5q-82 0 -144.5 -56
t-85.5 -139zM252 595l22 80h69l-22 -80h-69zM415 595l22 80h69l-22 -80h-69z" />
    <glyph glyph-name="igrave" unicode="&#xec;" horiz-adv-x="250" 
d="M32 0l137 510h49l-137 -510h-49zM180 595l-79 103l62 30l52 -133h-35z" />
    <glyph glyph-name="iacute" unicode="&#xed;" horiz-adv-x="250" 
d="M32 0l137 510h49l-137 -510h-49zM181 595l124 133l62 -30l-135 -103h-51z" />
    <glyph glyph-name="icircumflex" unicode="&#xee;" horiz-adv-x="250" 
d="M32 0l137 510h49l-137 -510h-49zM87 595l133 122h40l67 -122h-44l-52 68l-96 -68h-48z" />
    <glyph glyph-name="idieresis" unicode="&#xef;" horiz-adv-x="250" 
d="M32 0l137 510h49l-137 -510h-49zM96 595l22 80h69l-22 -80h-69zM259 595l22 80h69l-22 -80h-69z" />
    <glyph glyph-name="eth" unicode="&#xf0;" horiz-adv-x="616" 
d="M271 -11q-96 0 -160 61.5t-64 151.5q0 116 84.5 199.5t195.5 83.5q92 0 154 -53l-82 195l-154 -68l-22 40l158 70l-26 61h59l16 -40l111 49l22 -40l-116 -51l73 -184q47 -118 47 -190q0 -112 -85 -198.5t-211 -86.5zM276 35q97 0 167.5 70t70.5 167q0 71 -50.5 120
t-135.5 49q-93 0 -160.5 -70.5t-67.5 -165.5q0 -78 49 -124t127 -46z" />
    <glyph glyph-name="ntilde" unicode="&#xf1;" horiz-adv-x="611" 
d="M25 0l136 510h49l-25 -95q89 107 193 107q76 0 121.5 -44.5t45.5 -117.5q0 -28 -11 -72l-76 -288h-49l78 292q8 30 8 63q0 57 -35 90t-96 33q-67 0 -129 -54t-84 -136l-77 -288h-49zM278 593l-38 15q25 50 49 73t55 23q20 0 33.5 -8t33.5 -27q31 -30 48 -30
q15 0 27.5 13.5t31.5 46.5l38 -15q-25 -50 -49 -73t-55 -23q-20 0 -33.5 8t-33.5 27q-31 30 -48 30q-15 0 -27.5 -13.5t-31.5 -46.5z" />
    <glyph glyph-name="ograve" unicode="&#xf2;" horiz-adv-x="633" 
d="M278 -12q-101 0 -164 63.5t-63 162.5q0 122 91 215t212 93q101 0 164 -63.5t63 -162.5q0 -124 -92 -216t-211 -92zM283 34q95 0 170 78t75 182q0 85 -49 133.5t-130 48.5q-97 0 -171 -79t-74 -181q0 -85 49 -133.5t130 -48.5zM378 595l-79 103l62 30l52 -133h-35z" />
    <glyph glyph-name="oacute" unicode="&#xf3;" horiz-adv-x="633" 
d="M278 -12q-101 0 -164 63.5t-63 162.5q0 122 91 215t212 93q101 0 164 -63.5t63 -162.5q0 -124 -92 -216t-211 -92zM283 34q95 0 170 78t75 182q0 85 -49 133.5t-130 48.5q-97 0 -171 -79t-74 -181q0 -85 49 -133.5t130 -48.5zM322 595l124 133l62 -30l-135 -103h-51z" />
    <glyph glyph-name="ocircumflex" unicode="&#xf4;" horiz-adv-x="633" 
d="M278 -12q-101 0 -164 63.5t-63 162.5q0 122 91 215t212 93q101 0 164 -63.5t63 -162.5q0 -124 -92 -216t-211 -92zM283 34q95 0 170 78t75 182q0 85 -49 133.5t-130 48.5q-97 0 -171 -79t-74 -181q0 -85 49 -133.5t130 -48.5zM278 595l133 122h40l67 -122h-44l-52 68
l-96 -68h-48z" />
    <glyph glyph-name="otilde" unicode="&#xf5;" horiz-adv-x="633" 
d="M278 -12q-101 0 -164 63.5t-63 162.5q0 122 91 215t212 93q101 0 164 -63.5t63 -162.5q0 -124 -92 -216t-211 -92zM283 34q95 0 170 78t75 182q0 85 -49 133.5t-130 48.5q-97 0 -171 -79t-74 -181q0 -85 49 -133.5t130 -48.5zM282 593l-38 15q25 50 49 73t55 23
q20 0 33.5 -8t33.5 -27q31 -30 48 -30q15 0 27.5 13.5t31.5 46.5l38 -15q-25 -50 -49 -73t-55 -23q-20 0 -33.5 8t-33.5 27q-31 30 -48 30q-15 0 -27.5 -13.5t-31.5 -46.5z" />
    <glyph glyph-name="odieresis" unicode="&#xf6;" horiz-adv-x="633" 
d="M278 -12q-101 0 -164 63.5t-63 162.5q0 122 91 215t212 93q101 0 164 -63.5t63 -162.5q0 -124 -92 -216t-211 -92zM283 34q95 0 170 78t75 182q0 85 -49 133.5t-130 48.5q-97 0 -171 -79t-74 -181q0 -85 49 -133.5t130 -48.5zM269 595l22 80h69l-22 -80h-69zM432 595
l22 80h69l-22 -80h-69z" />
    <glyph glyph-name="divide" unicode="&#xf7;" horiz-adv-x="640" 
d="M123 328l14 51h454l-14 -51h-454zM264 129l23 85h66l-23 -85h-66zM362 493l22 85h66l-22 -85h-66z" />
    <glyph glyph-name="oslash" unicode="&#xf8;" horiz-adv-x="633" 
d="M278 -12q-104 0 -169 70l-77 -63h-67l118 96q-32 53 -32 123q0 122 91 215t212 93q105 0 169 -69l79 64h67l-120 -98q32 -53 32 -123q0 -124 -92 -216t-211 -92zM283 34q95 0 170 78t75 182q0 51 -19 92l-363 -298q48 -54 137 -54zM123 124l363 298q-49 54 -137 54
q-97 0 -171 -79t-74 -181q0 -51 19 -92z" />
    <glyph glyph-name="ugrave" unicode="&#xf9;" horiz-adv-x="609" 
d="M231 -12q-76 0 -121.5 44.5t-45.5 117.5q0 28 11 72l76 288h49l-78 -292q-8 -30 -8 -63q0 -57 35 -90t96 -33q67 0 129 54t84 136l77 288h49l-136 -510h-49l25 95q-89 -107 -193 -107zM370 595l-79 103l62 30l52 -133h-35z" />
    <glyph glyph-name="uacute" unicode="&#xfa;" horiz-adv-x="609" 
d="M231 -12q-76 0 -121.5 44.5t-45.5 117.5q0 28 11 72l76 288h49l-78 -292q-8 -30 -8 -63q0 -57 35 -90t96 -33q67 0 129 54t84 136l77 288h49l-136 -510h-49l25 95q-89 -107 -193 -107zM330 595l124 133l62 -30l-135 -103h-51z" />
    <glyph glyph-name="ucircumflex" unicode="&#xfb;" horiz-adv-x="609" 
d="M231 -12q-76 0 -121.5 44.5t-45.5 117.5q0 28 11 72l76 288h49l-78 -292q-8 -30 -8 -63q0 -57 35 -90t96 -33q67 0 129 54t84 136l77 288h49l-136 -510h-49l25 95q-89 -107 -193 -107zM263 595l133 122h40l67 -122h-44l-52 68l-96 -68h-48z" />
    <glyph glyph-name="udieresis" unicode="&#xfc;" horiz-adv-x="609" 
d="M231 -12q-76 0 -121.5 44.5t-45.5 117.5q0 28 11 72l76 288h49l-78 -292q-8 -30 -8 -63q0 -57 35 -90t96 -33q67 0 129 54t84 136l77 288h49l-136 -510h-49l25 95q-89 -107 -193 -107zM268 595l22 80h69l-22 -80h-69zM431 595l22 80h69l-22 -80h-69z" />
    <glyph glyph-name="yacute" unicode="&#xfd;" horiz-adv-x="568" 
d="M20 -163q-58 0 -108 35l27 40q36 -29 87 -29q40 0 78.5 27.5t84.5 92.5l-104 507h52l89 -456l307 456h59l-363 -528q-54 -78 -103.5 -111.5t-105.5 -33.5zM295 595l124 133l62 -30l-135 -103h-51z" />
    <glyph glyph-name="thorn" unicode="&#xfe;" horiz-adv-x="654" 
d="M-18 -160l239 890h49l-87 -320q94 112 212 112q89 0 147 -60.5t58 -154.5q0 -134 -86 -227t-202 -93q-79 0 -130 40.5t-73 102.5l-78 -290h-49zM310 33q101 0 169 80t68 188q0 78 -44 126.5t-114 48.5q-96 0 -175.5 -82t-79.5 -183q0 -75 49.5 -126.5t126.5 -51.5z" />
    <glyph glyph-name="ydieresis" unicode="&#xff;" horiz-adv-x="568" 
d="M20 -163q-58 0 -108 35l27 40q36 -29 87 -29q40 0 78.5 27.5t84.5 92.5l-104 507h52l89 -456l307 456h59l-363 -528q-54 -78 -103.5 -111.5t-105.5 -33.5zM242 595l22 80h69l-22 -80h-69zM405 595l22 80h69l-22 -80h-69z" />
    <glyph glyph-name="dotlessi" unicode="&#x131;" horiz-adv-x="250" 
d="M32 0l137 510h49l-137 -510h-49z" />
    <glyph glyph-name="Lslash" unicode="&#x141;" horiz-adv-x="650" 
d="M86 0l85 316l-80 -23l12 48l81 23l90 336h52l-86 -320l243 69l-13 -48l-243 -69l-76 -284h411l-13 -48h-463z" />
    <glyph glyph-name="lslash" unicode="&#x142;" horiz-adv-x="309" 
d="M62 0l90 335l-81 -23l13 50l81 23l93 345h49l-89 -330l84 24l-14 -50l-83 -24l-94 -350h-49z" />
    <glyph glyph-name="OE" unicode="&#x152;" horiz-adv-x="1154" 
d="M441 0q-178 0 -272 94q-77 77 -77 200q0 162 109 271q64 64 156.5 99.5t199.5 35.5h649l-13 -48h-430l-74 -275h385l-13 -48h-385l-75 -281h435l-13 -48h-582zM444 48h105l162 604h-161q-190 0 -310 -120q-94 -94 -94 -234q0 -106 65 -171q79 -79 233 -79z" />
    <glyph glyph-name="oe" unicode="&#x153;" horiz-adv-x="1046" 
d="M275 -12q-97 0 -160.5 64t-63.5 162q0 122 91 215t212 93q84 0 139 -46t71 -117q88 163 246 163q92 0 142.5 -56t50.5 -139q0 -49 -14 -89h-419q-2 -22 -2 -34q0 -77 47 -123.5t122 -46.5q91 0 174 68l29 -35q-95 -79 -200 -79q-81 0 -138 42.5t-73 112.5
q-41 -68 -106 -111.5t-148 -43.5zM283 34q94 0 169.5 77t75.5 178q0 88 -49 137.5t-130 49.5q-97 0 -171 -79t-74 -181q0 -85 49 -133.5t130 -48.5zM579 282h370q4 18 4 42q0 66 -36.5 109.5t-107.5 43.5q-82 0 -144.5 -56t-85.5 -139z" />
    <glyph glyph-name="Scaron" unicode="&#x160;" horiz-adv-x="638" 
d="M299 -10q-184 0 -279 134l40 29q46 -59 104 -87.5t140 -28.5q86 0 144 43.5t58 109.5q0 46 -34 77t-119 64q-111 43 -155.5 83t-44.5 103q0 81 70 137t181 56q76 0 139.5 -29.5t103.5 -77.5l-40 -32q-80 92 -208 92q-87 0 -140 -42t-53 -100q0 -47 38 -77.5t129 -65.5
q100 -38 143 -79.5t43 -104.5q0 -86 -74 -145t-186 -59zM420 765l-67 122h44l52 -68l96 68h48l-133 -122h-40z" />
    <glyph glyph-name="scaron" unicode="&#x161;" horiz-adv-x="495" 
d="M217 -11q-128 0 -216 88l35 35q81 -78 187 -78q51 0 91.5 28.5t40.5 72.5q0 31 -23.5 54t-87.5 47q-76 28 -109.5 58.5t-33.5 78.5q0 62 52.5 105t136.5 43q103 0 184 -68l-32 -37q-73 60 -157 60q-61 0 -96.5 -28t-35.5 -67q0 -31 23 -52t92 -48q76 -30 107.5 -61
t31.5 -77q0 -66 -56 -110t-134 -44zM308 595l-67 122h44l52 -68l96 68h48l-133 -122h-40z" />
    <glyph glyph-name="Ydieresis" unicode="&#x178;" horiz-adv-x="668" 
d="M234 0l76 284l-183 416h57l161 -376l364 376h70l-421 -429l-72 -271h-52zM343 765l22 80h69l-22 -80h-69zM506 765l22 80h69l-22 -80h-69z" />
    <glyph glyph-name="Zcaron" unicode="&#x17d;" horiz-adv-x="662" 
d="M-19 0l8 29l636 624h-452l13 47h533l-8 -29l-636 -624h472l-13 -47h-553zM426 765l-67 122h44l52 -68l96 68h48l-133 -122h-40z" />
    <glyph glyph-name="zcaron" unicode="&#x17e;" horiz-adv-x="546" 
d="M-17 0l8 28l475 438h-344l12 44h424l-8 -28l-475 -438h361l-12 -44h-441zM330 595l-67 122h44l52 -68l96 68h48l-133 -122h-40z" />
    <glyph glyph-name="florin" unicode="&#x192;" horiz-adv-x="526" 
d="M33 -10q-30 0 -56 8l13 43q21 -7 47 -7q35 0 61.5 25.5t51.5 81.5l107 243h-107l12 45h114l59 134q64 147 178 147q43 0 83 -15l-15 -42q-37 13 -70 13q-80 0 -131 -115l-54 -122h162l-12 -45h-169l-112 -255q-33 -76 -71.5 -107.5t-90.5 -31.5z" />
    <glyph glyph-name="circumflex" unicode="&#x2c6;" 
d="M222 595l133 122h40l67 -122h-44l-52 68l-96 -68h-48z" />
    <glyph glyph-name="caron" unicode="&#x2c7;" 
d="M321 595l-67 122h44l52 -68l96 68h48l-133 -122h-40z" />
    <glyph glyph-name="breve" unicode="&#x2d8;" 
d="M339 593q-48 0 -76 24t-28 67q0 16 4 33h40q0 -37 15.5 -55t55.5 -18q70 0 109 73h46q-19 -58 -64.5 -91t-101.5 -33z" />
    <glyph glyph-name="dotaccent" unicode="&#x2d9;" 
d="M307 593l23 85h66l-23 -85h-66z" />
    <glyph glyph-name="ring" unicode="&#x2da;" 
d="M359 595q-42 0 -69 23t-27 59q0 42 31.5 72t74.5 30q42 0 69 -23t27 -59q0 -42 -31.5 -72t-74.5 -30zM359 627q29 0 49.5 20.5t20.5 49.5q0 22 -15.5 36t-44.5 14t-49.5 -20.5t-20.5 -49.5q0 -22 15.5 -36t44.5 -14z" />
    <glyph glyph-name="ogonek" unicode="&#x2db;" 
d="M226 -164q-72 -2 -108 20.5t-36 61.5q0 40 36 92h43q-25 -48 -25 -82q0 -56 98 -61z" />
    <glyph glyph-name="tilde" unicode="&#x2dc;" 
d="M233 593l-38 15q25 50 49 73t55 23q20 0 33.5 -8t33.5 -27q31 -30 48 -30q15 0 27.5 13.5t31.5 46.5l38 -15q-25 -50 -49 -73t-55 -23q-20 0 -33.5 8t-33.5 27q-31 30 -48 30q-15 0 -27.5 -13.5t-31.5 -46.5z" />
    <glyph glyph-name="hungarumlaut" unicode="&#x2dd;" 
d="M192 595l125 133l47 -29l-129 -104h-43zM344 595l125 133l47 -29l-129 -104h-43z" />
    <glyph glyph-name="Omega" unicode="&#x3a9;" horiz-adv-x="792" 
d="M636 0h-240l47 176q110 18 183.5 97.5t73.5 194.5q0 83 -60 136.5t-150 53.5q-130 0 -227 -85t-97 -220q0 -68 35 -118.5t100 -58.5l-47 -176h-240l12 47h197l24 90q-64 19 -99.5 80t-35.5 136q0 104 56.5 187t143 125t183.5 42q117 0 188.5 -68t71.5 -170
q0 -117 -79.5 -209t-200.5 -123l-24 -90h197z" />
    <glyph glyph-name="pi" unicode="&#x3c0;" 
d="M0 0v700h500v-700h-500zM81 49h339l-170 255zM49 96l171 254l-171 254v-508zM450 96v508l-171 -254zM250 395l170 255h-339z" />
    <glyph glyph-name="afii10023" unicode="&#x401;" horiz-adv-x="649" 
d="M36 0l188 700h493l-13 -48h-441l-74 -275h396l-13 -48h-396l-75 -281h446l-13 -48h-498zM365 765l22 80h69l-22 -80h-69zM528 765l22 80h69l-22 -80h-69z" />
    <glyph glyph-name="afii10051" unicode="&#x402;" horiz-adv-x="832" 
d="M492 -12q-78 0 -111 22l25 43q34 -18 88 -18q104 0 166 66t62 165q0 58 -42.5 95.5t-106.5 37.5q-74 0 -131.5 -21t-128.5 -72l-82 -306h-52l175 652h-214l13 48h540l-13 -48h-274l-78 -290q70 45 124.5 64.5t124.5 19.5q86 0 143 -48t57 -130q0 -120 -79 -200t-206 -80z
" />
    <glyph glyph-name="afii10052" unicode="&#x403;" horiz-adv-x="582" 
d="M36 0l187 700h437l-12 -48h-385l-175 -652h-52zM382 765l124 133l62 -30l-135 -103h-51z" />
    <glyph glyph-name="afii10053" unicode="&#x404;" horiz-adv-x="738" 
d="M378 -13q-120 0 -203 77.5t-83 206.5q0 112 55.5 214t153 164.5t209.5 62.5q85 0 147.5 -35.5t98.5 -95.5l-45 -26q-72 110 -204 110q-121 0 -217 -83.5t-130 -204.5h371l-13 -48h-368q-4 -25 -4 -56q0 -109 66.5 -173.5t170.5 -64.5q74 0 129.5 26.5t107.5 78.5l35 -32
q-116 -121 -277 -121z" />
    <glyph glyph-name="afii10054" unicode="&#x405;" horiz-adv-x="638" 
d="M299 -10q-184 0 -279 134l40 29q46 -59 104 -87.5t140 -28.5q86 0 144 43.5t58 109.5q0 46 -34 77t-119 64q-111 43 -155.5 83t-44.5 103q0 81 70 137t181 56q76 0 139.5 -29.5t103.5 -77.5l-40 -32q-80 92 -208 92q-87 0 -140 -42t-53 -100q0 -47 38 -77.5t129 -65.5
q100 -38 143 -79.5t43 -104.5q0 -86 -74 -145t-186 -59z" />
    <glyph glyph-name="afii10055" unicode="&#x406;" horiz-adv-x="274" 
d="M43 0l188 700h52l-188 -700h-52z" />
    <glyph glyph-name="afii10056" unicode="&#x407;" horiz-adv-x="274" 
d="M43 0l188 700h52l-188 -700h-52zM153 765l22 80h69l-22 -80h-69zM316 765l22 80h69l-22 -80h-69z" />
    <glyph glyph-name="afii10057" unicode="&#x408;" horiz-adv-x="538" 
d="M196 -10q-83 0 -132.5 44t-68.5 117l46 16q40 -130 153 -130q75 0 127 52q50 50 78 153l123 458h52l-125 -465q-31 -117 -93 -179q-66 -66 -160 -66z" />
    <glyph glyph-name="afii10058" unicode="&#x409;" horiz-adv-x="1162" 
d="M13 -7q-57 0 -87 19l26 41q22 -12 63 -12q20 0 39 7t50 37.5t61 83t68.5 155t76.5 242.5l36 134h429l-76 -282h181q126 0 186 -60q45 -45 45 -118q0 -114 -90 -177t-246 -63h-240l175 652h-327l-24 -88q-39 -147 -78.5 -253.5t-72.5 -167t-69 -95t-64 -45t-62 -10.5z
M600 48h177q136 0 209 49t73 141q0 53 -33 86q-46 46 -147 46h-193z" />
    <glyph glyph-name="afii10059" unicode="&#x40a;" horiz-adv-x="1158" 
d="M36 0l188 700h52l-80 -296h443l80 296h52l-81 -296h193q123 0 181 -58q43 -43 43 -113q0 -111 -88 -172t-241 -61h-247l95 356h-443l-95 -356h-52zM595 48h185q133 0 204 47.5t71 135.5q0 50 -31 81q-44 44 -142 44h-204z" />
    <glyph glyph-name="afii10060" unicode="&#x40b;" horiz-adv-x="848" 
d="M179 0l175 652h-214l13 48h540l-13 -48h-274l-75 -279q147 71 245 71q88 0 140 -36.5t52 -105.5q0 -29 -8 -57l-65 -245h-52l67 250q6 23 6 41q0 51 -36.5 79.5t-102.5 28.5q-109 0 -259 -75l-87 -324h-52z" />
    <glyph glyph-name="afii10061" unicode="&#x40c;" horiz-adv-x="714" 
d="M36 0l188 700h52l-122 -455l560 455h77l-389 -313l212 -387h-60l-195 357l-224 -182l-47 -175h-52zM414 765l124 133l62 -30l-135 -103h-51z" />
    <glyph glyph-name="afii10062" unicode="&#x40e;" horiz-adv-x="710" 
d="M119 -12q-79 0 -114 26l30 43q36 -20 86 -20q97 0 190 124l-170 539h56l152 -490l370 490h61l-423 -558q-116 -154 -238 -154zM464 765q-52 0 -84 31.5t-34 81.5l42 9q5 -36 22.5 -54.5t54.5 -18.5q39 0 68 19.5t43 53.5l40 -9q-16 -50 -58 -81.5t-94 -31.5z" />
    <glyph glyph-name="afii10145" unicode="&#x40f;" horiz-adv-x="742" 
d="M242 -160l43 160h-249l188 700h52l-175 -652h429l175 652h52l-188 -700h-230l-43 -160h-54z" />
    <glyph glyph-name="afii10017" unicode="&#x410;" horiz-adv-x="759" 
d="M-34 0l515 705h50l137 -705h-53l-36 196h-413l-142 -196h-58zM200 243h369l-75 405z" />
    <glyph glyph-name="afii10018" unicode="&#x411;" horiz-adv-x="700" 
d="M36 0l188 700h477l-12 -48h-426l-67 -248h217q123 0 181 -58q43 -43 43 -113q0 -111 -88 -172t-241 -61h-272zM101 48h209q133 0 204 47.5t71 135.5q0 50 -31 81q-44 44 -142 44h-228z" />
    <glyph glyph-name="afii10019" unicode="&#x412;" horiz-adv-x="717" 
d="M36 0l188 700h259q96 0 153 -42.5t57 -116.5t-52 -123.5t-133 -65.5q60 -16 97 -52t37 -94q0 -91 -79 -148.5t-212 -57.5h-315zM101 48h253q109 0 172 42t63 116q0 59 -51 91t-134 32h-228zM189 377h216q106 0 170 44t64 115q0 57 -42.5 86.5t-118.5 29.5h-215z" />
    <glyph glyph-name="afii10020" unicode="&#x413;" horiz-adv-x="582" 
d="M36 0l187 700h437l-12 -48h-385l-175 -652h-52z" />
    <glyph glyph-name="afii10021" unicode="&#x414;" horiz-adv-x="751" 
d="M-100 -160l56 208h70q154 158 245 485l46 167h429l-175 -652h95l-66 -208h-44l43 160h-603l-52 -160h-44zM90 48h429l162 604h-327l-43 -157q-38 -142 -95.5 -259t-125.5 -188z" />
    <glyph glyph-name="afii10022" unicode="&#x415;" horiz-adv-x="649" 
d="M36 0l188 700h493l-13 -48h-441l-74 -275h396l-13 -48h-396l-75 -281h446l-13 -48h-498z" />
    <glyph glyph-name="afii10024" unicode="&#x416;" horiz-adv-x="1072" 
d="M-43 0l402 404l-190 296h60l282 -446l119 446h52l-117 -440l511 440h73l-358 -303l188 -397h-59l-170 362l-205 -173l-50 -189h-52l51 195l-108 167l-359 -362h-70z" />
    <glyph glyph-name="afii10025" unicode="&#x417;" horiz-adv-x="600" 
d="M260 -12q-87 0 -152.5 34.5t-100.5 91.5l45 27q70 -106 211 -106q89 0 145.5 44.5t56.5 109.5q0 69 -55.5 105t-130.5 36h-60l12 46h70q103 0 169 43t66 115q0 59 -46 94t-118 35q-102 0 -190 -69l-32 35q99 81 222 81q92 0 155.5 -46.5t63.5 -126.5q0 -77 -56 -124.5
t-155 -63.5q62 -18 101 -57.5t39 -100.5q0 -86 -75.5 -144.5t-184.5 -58.5z" />
    <glyph glyph-name="afii10026" unicode="&#x418;" horiz-adv-x="766" 
d="M36 0l188 700h52l-167 -621l621 621h51l-187 -700h-52l166 621l-620 -621h-52z" />
    <glyph glyph-name="afii10027" unicode="&#x419;" horiz-adv-x="766" 
d="M36 0l188 700h52l-167 -621l621 621h51l-187 -700h-52l166 621l-620 -621h-52zM496 765q-52 0 -84 31.5t-34 81.5l42 9q5 -36 22.5 -54.5t54.5 -18.5q39 0 68 19.5t43 53.5l40 -9q-16 -50 -58 -81.5t-94 -31.5z" />
    <glyph glyph-name="afii10028" unicode="&#x41a;" horiz-adv-x="714" 
d="M36 0l188 700h52l-122 -455l560 455h77l-389 -313l212 -387h-60l-195 357l-224 -182l-47 -175h-52z" />
    <glyph glyph-name="afii10029" unicode="&#x41b;" horiz-adv-x="760" 
d="M13 -7q-57 0 -87 19l26 41q22 -12 63 -12q20 0 39 7t50 37.5t61 83t68.5 155t76.5 242.5l36 134h429l-188 -700h-52l175 652h-327l-24 -88q-39 -147 -78.5 -253.5t-72.5 -167t-69 -95t-64 -45t-62 -10.5z" />
    <glyph glyph-name="afii10030" unicode="&#x41c;" horiz-adv-x="869" 
d="M36 0l188 700h43l170 -414l392 414h55l-188 -700h-52l163 608l-385 -403h-4l-169 403l-163 -608h-50z" />
    <glyph glyph-name="afii10031" unicode="&#x41d;" horiz-adv-x="756" 
d="M36 0l188 700h52l-87 -324h443l87 324h52l-188 -700h-52l88 328h-443l-88 -328h-52z" />
    <glyph glyph-name="afii10032" unicode="&#x41e;" horiz-adv-x="846" 
d="M398 -13q-131 0 -216.5 86.5t-85.5 214.5q0 108 53.5 206t147 158t202.5 60q131 0 216.5 -86.5t85.5 -214.5q0 -108 -53.5 -206t-147 -158t-202.5 -60zM398 34q96 0 177 54t126.5 140.5t45.5 182.5q0 109 -69 181.5t-179 72.5q-96 0 -177 -54t-126.5 -140.5t-45.5 -182.5
q0 -109 69 -181.5t179 -72.5z" />
    <glyph glyph-name="afii10033" unicode="&#x41f;" horiz-adv-x="742" 
d="M36 0l188 700h533l-188 -700h-52l175 652h-429l-175 -652h-52z" />
    <glyph glyph-name="afii10034" unicode="&#x420;" horiz-adv-x="663" 
d="M36 0l188 700h218q130 0 193 -63q48 -48 48 -125q0 -118 -93 -184t-253 -66h-178l-71 -262h-52zM171 309h168q141 0 216.5 52.5t75.5 148.5q0 57 -36 93q-49 49 -154 49h-178z" />
    <glyph glyph-name="afii10035" unicode="&#x421;" horiz-adv-x="738" 
d="M378 -13q-120 0 -203 77.5t-83 206.5q0 112 55.5 214t153 164.5t209.5 62.5q92 0 157.5 -41.5t99.5 -109.5l-45 -24q-36 63 -86.5 95.5t-128.5 32.5q-148 0 -254.5 -120t-106.5 -272q0 -109 66.5 -173.5t170.5 -64.5q74 0 129.5 26.5t107.5 78.5l35 -32
q-116 -121 -277 -121z" />
    <glyph glyph-name="afii10036" unicode="&#x422;" horiz-adv-x="615" 
d="M209 0l175 652h-244l13 48h540l-13 -48h-244l-175 -652h-52z" />
    <glyph glyph-name="afii10037" unicode="&#x423;" horiz-adv-x="710" 
d="M119 -12q-79 0 -114 26l30 43q36 -20 86 -20q97 0 190 124l-170 539h56l152 -490l370 490h61l-423 -558q-116 -154 -238 -154z" />
    <glyph glyph-name="afii10038" unicode="&#x424;" horiz-adv-x="862" 
d="M329 -26l21 78q-132 1 -205.5 76t-73.5 187q0 137 106.5 236.5t281.5 99.5h51l19 71h52l-19 -71q132 -1 205 -76.5t73 -186.5q0 -137 -106.5 -236.5t-281.5 -99.5h-50l-21 -78h-52zM362 99l135 505h-45q-150 0 -238.5 -81.5t-88.5 -204.5q0 -97 62 -158t175 -61zM414 99
h45q150 0 238.5 81.5t88.5 204.5q0 97 -62 158t-175 61z" />
    <glyph glyph-name="afii10039" unicode="&#x425;" horiz-adv-x="692" 
d="M-23 0l366 362l-186 338h56l167 -308l310 308h67l-352 -347l192 -353h-56l-173 323l-324 -323h-67z" />
    <glyph glyph-name="afii10040" unicode="&#x426;" horiz-adv-x="762" 
d="M566 -160l43 160h-573l188 700h52l-175 -652h429l175 652h52l-176 -652h95l-66 -208h-44z" />
    <glyph glyph-name="afii10041" unicode="&#x427;" horiz-adv-x="684" 
d="M460 0l83 312q-147 -71 -235 -71t-140 36.5t-52 105.5q0 29 8 57l69 260h52l-71 -265q-6 -23 -6 -41q0 -51 36.5 -79.5t102.5 -28.5q99 0 249 75l91 339h52l-187 -700h-52z" />
    <glyph glyph-name="afii10042" unicode="&#x428;" horiz-adv-x="1101" 
d="M36 0l188 700h52l-175 -652h367l175 652h52l-175 -652h368l176 652h52l-188 -700h-892z" />
    <glyph glyph-name="afii10043" unicode="&#x429;" horiz-adv-x="1121" 
d="M926 -160l43 160h-933l188 700h52l-175 -652h367l175 652h52l-175 -652h368l176 652h52l-175 -652h95l-66 -208h-44z" />
    <glyph glyph-name="afii10044" unicode="&#x42a;" horiz-adv-x="783" 
d="M156 0l175 652h-191l13 48h243l-76 -282h181q126 0 186 -60q45 -45 45 -118q0 -114 -90 -177t-246 -63h-240zM221 48h177q136 0 209 49t73 141q0 53 -33 86q-46 46 -147 46h-193z" />
    <glyph glyph-name="afii10045" unicode="&#x42b;" horiz-adv-x="870" 
d="M36 0l188 700h52l-76 -282h181q126 0 186 -60q45 -45 45 -118q0 -114 -90 -177t-246 -63h-240zM101 48h177q136 0 209 49t73 141q0 53 -33 86q-46 46 -147 46h-193zM646 0l187 700h52l-187 -700h-52z" />
    <glyph glyph-name="afii10046" unicode="&#x42c;" horiz-adv-x="663" 
d="M36 0l188 700h52l-76 -282h181q126 0 186 -60q45 -45 45 -118q0 -114 -90 -177t-246 -63h-240zM101 48h177q136 0 209 49t73 141q0 53 -33 86q-46 46 -147 46h-193z" />
    <glyph glyph-name="afii10047" unicode="&#x42d;" horiz-adv-x="738" 
d="M285 -13q-92 0 -157.5 41.5t-99.5 109.5l45 24q36 -63 86.5 -95.5t128.5 -32.5q125 0 219 84.5t122 210.5h-363l13 48h358q2 26 2 39q0 110 -67 179t-170 69q-74 0 -129.5 -26.5t-107.5 -78.5l-35 32q116 121 277 121q119 0 202.5 -82t83.5 -212q0 -113 -53 -211.5
t-147.5 -159t-207.5 -60.5z" />
    <glyph glyph-name="afii10048" unicode="&#x42e;" horiz-adv-x="1041" 
d="M613 -13q-125 0 -201.5 82.5t-76.5 209.5q0 23 3 49h-162l-88 -328h-52l188 700h52l-88 -324h157q30 145 135.5 240.5t237.5 95.5q126 0 202 -82.5t76 -209.5q0 -178 -114 -305.5t-269 -127.5zM613 34q134 0 231 115t97 271q0 108 -61 176.5t-162 68.5q-134 0 -231 -114
t-97 -271q0 -108 61 -177t162 -69z" />
    <glyph glyph-name="afii10049" unicode="&#x42f;" horiz-adv-x="713" 
d="M-9 0l296 286q-73 14 -110 53q-45 45 -45 119q0 114 90.5 178t246.5 64h259l-187 -700h-52l75 279h-218l-286 -279h-69zM365 327h211l88 325h-197q-136 0 -209.5 -50t-73.5 -142q0 -54 33 -87q46 -46 148 -46z" />
    <glyph glyph-name="afii10065" unicode="&#x430;" horiz-adv-x="571" 
d="M190 -12q-69 0 -118 37.5t-49 105.5q0 84 64 134.5t166 50.5q90 0 196 -29l4 14q7 26 7 51q0 58 -39.5 89t-114.5 31q-70 0 -148 -27l-9 44q81 29 161 29q93 0 145.5 -42.5t52.5 -116.5q0 -29 -10 -67l-78 -292h-48l23 88q-84 -100 -205 -100zM199 33q75 0 141.5 47.5
t86.5 122.5l12 45q-96 24 -193 24q-76 0 -123.5 -37.5t-47.5 -97.5q0 -47 33.5 -75.5t90.5 -28.5z" />
    <glyph glyph-name="afii10066" unicode="&#x431;" horiz-adv-x="642" 
d="M361 506q102 0 164.5 -60t62.5 -157q0 -118 -92.5 -209.5t-203.5 -91.5q-112 0 -170.5 63t-58.5 163q0 46 8 95.5t28.5 105t50.5 101t78 81t108 48.5l299 64l11 -44l-295 -66q-83 -19 -131 -65t-75 -129h4q87 101 212 101zM354 462q-96 0 -167.5 -74.5t-71.5 -176.5
q0 -77 45.5 -127t131.5 -50q90 0 166 78.5t76 178.5q0 79 -47.5 125t-132.5 46z" />
    <glyph glyph-name="afii10067" unicode="&#x432;" horiz-adv-x="580" 
d="M25 0l137 510h215q70 0 111.5 -31t41.5 -85q0 -53 -37.5 -87t-97.5 -46q43 -10 70.5 -39t27.5 -72q0 -66 -57.5 -108t-155.5 -42h-255zM85 44h191q76 0 120.5 29t44.5 80q0 41 -36 64t-93 23h-174zM149 282h164q74 0 119 29.5t45 78.5q0 76 -111 76h-167z" />
    <glyph glyph-name="afii10068" unicode="&#x433;" horiz-adv-x="460" 
d="M25 0l137 510h337l-12 -44h-288l-125 -466h-49z" />
    <glyph glyph-name="afii10069" unicode="&#x434;" horiz-adv-x="608" 
d="M-87 -144l49 188h62q109 124 171 358l29 108h342l-125 -466h82l-60 -188h-40l39 144h-460l-49 -144h-40zM78 44h314l114 422h-246l-25 -92q-27 -101 -69.5 -190t-87.5 -140z" />
    <glyph glyph-name="afii10070" unicode="&#x435;" horiz-adv-x="583" 
d="M272 -12q-98 0 -160 60t-62 154q0 123 87 221.5t208 98.5q92 0 142.5 -56t50.5 -139q0 -49 -14 -89h-419q-2 -22 -2 -34q0 -77 47 -123.5t122 -46.5q91 0 174 68l29 -35q-95 -79 -203 -79zM114 282h370q4 18 4 42q0 66 -36.5 109.5t-107.5 43.5q-82 0 -144.5 -56
t-85.5 -139z" />
    <glyph glyph-name="afii10072" unicode="&#x436;" horiz-adv-x="832" 
d="M-43 0l297 293l-141 217h56l206 -325l87 325h49l-86 -322l374 322h66l-263 -223l138 -287h-55l-121 255l-156 -132l-33 -123h-49l35 130l-82 126l-257 -256h-65z" />
    <glyph glyph-name="afii10073" unicode="&#x437;" 
d="M204 -10q-121 0 -200 76l37 40q70 -70 164 -70q61 0 109.5 35.5t48.5 86.5q0 38 -33 59.5t-92 21.5h-70l12 44h66q59 0 102.5 31.5t43.5 82.5q0 35 -30 55.5t-78 20.5q-94 0 -168 -52l-22 39q89 59 195 59q71 0 114.5 -35t43.5 -86q0 -92 -105 -133q35 -13 55 -42t20 -66
q0 -70 -59 -118.5t-154 -48.5z" />
    <glyph glyph-name="afii10074" unicode="&#x438;" horiz-adv-x="623" 
d="M25 0l137 510h49l-118 -439l456 439h49l-137 -510h-49l119 441l-457 -441h-49z" />
    <glyph glyph-name="afii10075" unicode="&#x439;" horiz-adv-x="623" 
d="M25 0l137 510h49l-118 -439l456 439h49l-137 -510h-49l119 441l-457 -441h-49zM388 595q-52 0 -84 31.5t-34 81.5l42 9q5 -36 22.5 -54.5t54.5 -18.5q39 0 68 19.5t43 53.5l40 -9q-16 -50 -58 -81.5t-94 -31.5z" />
    <glyph glyph-name="afii10076" unicode="&#x43a;" horiz-adv-x="560" 
d="M25 0l137 510h49l-86 -321l396 321h71l-284 -228l152 -282h-57l-136 252l-160 -128l-33 -124h-49z" />
    <glyph glyph-name="afii10077" unicode="&#x43b;" horiz-adv-x="607" 
d="M-3 -8q-42 0 -60 9l20 44q14 -7 36 -7q30 0 51 12t50 54t62 135.5t74 243.5l8 27h344l-137 -510h-49l125 466h-248l-4 -14q-34 -124 -63.5 -209.5t-54 -135t-51.5 -75.5t-49 -33t-54 -7z" />
    <glyph glyph-name="afii10078" unicode="&#x43c;" horiz-adv-x="690" 
d="M25 0l137 510h39l128 -296l290 296h47l-137 -510h-49l114 425l-280 -282l-126 284l-114 -427h-49z" />
    <glyph glyph-name="afii10079" unicode="&#x43d;" horiz-adv-x="616" 
d="M25 0l137 510h49l-61 -227h331l61 227h49l-137 -510h-49l64 239h-331l-64 -239h-49z" />
    <glyph glyph-name="afii10080" unicode="&#x43e;" horiz-adv-x="633" 
d="M278 -12q-101 0 -164 63.5t-63 162.5q0 122 91 215t212 93q101 0 164 -63.5t63 -162.5q0 -124 -92 -216t-211 -92zM283 34q95 0 170 78t75 182q0 85 -49 133.5t-130 48.5q-97 0 -171 -79t-74 -181q0 -85 49 -133.5t130 -48.5z" />
    <glyph glyph-name="afii10081" unicode="&#x43f;" horiz-adv-x="603" 
d="M25 0l137 510h416l-137 -510h-49l125 466h-318l-125 -466h-49z" />
    <glyph glyph-name="afii10082" unicode="&#x440;" horiz-adv-x="654" 
d="M312 -13q-79 0 -130 40.5t-73 102.5l-78 -290h-49l180 670h48l-27 -100q94 112 212 112q89 0 147 -60.5t58 -154.5q0 -134 -86 -227t-202 -93zM310 33q101 0 169 80t68 188q0 78 -44 126.5t-114 48.5q-96 0 -175.5 -82t-79.5 -183q0 -75 49.5 -126.5t126.5 -51.5z" />
    <glyph glyph-name="afii10083" unicode="&#x441;" horiz-adv-x="563" 
d="M272 -12q-89 0 -155.5 60t-66.5 160q0 126 89.5 220t210.5 94q73 0 123.5 -35t76.5 -88l-41 -23q-57 100 -162 100q-97 0 -170.5 -80t-73.5 -185q0 -82 50.5 -129.5t121.5 -47.5q87 0 165 73l33 -32q-90 -87 -201 -87z" />
    <glyph glyph-name="afii10084" unicode="&#x442;" horiz-adv-x="491" 
d="M146 0l125 466h-191l12 44h431l-12 -44h-191l-125 -466h-49z" />
    <glyph glyph-name="afii10085" unicode="&#x443;" horiz-adv-x="568" 
d="M20 -163q-58 0 -108 35l27 40q36 -29 87 -29q40 0 78.5 27.5t84.5 92.5l-104 507h52l89 -456l307 456h59l-363 -528q-54 -78 -103.5 -111.5t-105.5 -33.5z" />
    <glyph glyph-name="afii10086" unicode="&#x444;" horiz-adv-x="855" 
d="M292 -160l55 206q-69 -58 -143 -58t-116.5 44t-42.5 130q0 81 29.5 161t95 139.5t152.5 59.5q81 0 136 -65l64 243h49l-63 -238q27 21 43.5 31.5t43 19.5t56.5 9q72 0 115.5 -48.5t43.5 -132.5q0 -59 -18 -120t-51 -113.5t-87.5 -86t-120.5 -33.5q-86 0 -137 58l-55 -206
h-49zM214 35q71 0 148 65l84 314q-41 61 -124 61q-71 0 -124.5 -50.5t-77 -119.5t-23.5 -141q0 -60 29 -94.5t88 -34.5zM533 35q55 0 99 28t70.5 73.5t40 98t13.5 106.5q0 61 -29 97.5t-86 36.5q-74 0 -146 -61l-86 -318q41 -61 124 -61z" />
    <glyph glyph-name="afii10087" unicode="&#x445;" horiz-adv-x="559" 
d="M-29 0l284 264l-135 246h56l112 -215l224 215h66l-268 -250l141 -260h-56l-118 229l-240 -229h-66z" />
    <glyph glyph-name="afii10088" unicode="&#x446;" horiz-adv-x="620" 
d="M434 -144l39 144h-448l137 510h49l-125 -466h318l125 466h49l-125 -466h82l-61 -188h-40z" />
    <glyph glyph-name="afii10089" unicode="&#x447;" horiz-adv-x="556" 
d="M345 0l60 223q-106 -52 -190 -52q-62 0 -98 29t-36 81q0 23 7 47l49 182h49l-51 -192q-5 -18 -5 -31q0 -33 24 -52t68 -19q99 0 196 56l64 238h49l-137 -510h-49z" />
    <glyph glyph-name="afii10090" unicode="&#x448;" horiz-adv-x="890" 
d="M25 0l137 510h49l-125 -466h278l125 466h49l-125 -466h278l125 466h49l-137 -510h-703z" />
    <glyph glyph-name="afii10091" unicode="&#x449;" horiz-adv-x="907" 
d="M721 -144l39 144h-735l137 510h49l-125 -466h278l125 466h49l-125 -466h278l125 466h49l-125 -466h82l-61 -188h-40z" />
    <glyph glyph-name="afii10092" unicode="&#x44a;" horiz-adv-x="619" 
d="M115 0l125 466h-160l12 44h209l-55 -205h146q92 0 136 -44q33 -33 33 -86q0 -83 -65.5 -129t-179.5 -46h-201zM176 44h136q95 0 146 33.5t51 95.5q0 45 -35.5 66.5t-86.5 21.5h-153z" />
    <glyph glyph-name="afii10093" unicode="&#x44b;" horiz-adv-x="733" 
d="M25 0l137 510h49l-55 -205h145q92 0 136 -44q33 -33 33 -86q0 -83 -65.5 -129t-179.5 -46h-200zM86 44h135q95 0 146 33.5t51 95.5q0 45 -35.5 66.5t-86.5 21.5h-152zM522 0l137 510h49l-137 -510h-49z" />
    <glyph glyph-name="afii10094" unicode="&#x44c;" horiz-adv-x="529" 
d="M25 0l137 510h49l-55 -205h146q92 0 136 -44q33 -33 33 -86q0 -83 -65.5 -129t-179.5 -46h-201zM86 44h136q95 0 146 33.5t51 95.5q0 45 -35.5 66.5t-86.5 21.5h-153z" />
    <glyph glyph-name="afii10095" unicode="&#x44d;" horiz-adv-x="562" 
d="M210 -12q-73 0 -123.5 35t-76.5 88l41 23q57 -100 162 -100q82 0 149 59t88 146h-256l11 44h251q1 5 1 16q0 82 -50.5 129.5t-121.5 47.5q-84 0 -158 -67l-29 36q86 77 190 77q89 0 155.5 -60t66.5 -160q0 -126 -89.5 -220t-210.5 -94z" />
    <glyph glyph-name="afii10096" unicode="&#x44e;" horiz-adv-x="814" 
d="M471 -12q-96 0 -153.5 60.5t-57.5 154.5q0 20 1 31h-125l-62 -234h-49l136 510h49l-62 -231h120q23 103 101 173t182 70q97 0 154 -61t57 -155q0 -128 -84.5 -223t-206.5 -95zM476 34q97 0 165 80.5t68 189.5q0 79 -43.5 125.5t-119.5 46.5q-98 0 -165.5 -81t-67.5 -189
q0 -79 43 -125.5t120 -46.5z" />
    <glyph glyph-name="afii10097" unicode="&#x44f;" horiz-adv-x="570" 
d="M-10 0l212 204q-111 24 -111 130q0 83 66 129.5t179 46.5h209l-136 -510h-49l53 199h-156l-203 -199h-64zM260 243h165l60 223h-150q-96 0 -147.5 -34.5t-51.5 -98.5q0 -43 32 -66.5t92 -23.5z" />
    <glyph glyph-name="afii10071" unicode="&#x451;" horiz-adv-x="583" 
d="M272 -12q-98 0 -160 60t-62 154q0 123 87 221.5t208 98.5q92 0 142.5 -56t50.5 -139q0 -49 -14 -89h-419q-2 -22 -2 -34q0 -77 47 -123.5t122 -46.5q91 0 174 68l29 -35q-95 -79 -203 -79zM114 282h370q4 18 4 42q0 66 -36.5 109.5t-107.5 43.5q-82 0 -144.5 -56
t-85.5 -139zM252 595l22 80h69l-22 -80h-69zM415 595l22 80h69l-22 -80h-69z" />
    <glyph glyph-name="afii10099" unicode="&#x452;" horiz-adv-x="609" 
d="M279 -12q-63 0 -101 23l25 42q34 -19 82 -19q130 0 172 151l30 107q8 30 8 63q0 57 -35 90t-96 33q-67 0 -129 -54t-84 -136l-77 -288h-49l156 581h-84l12 44h84l28 105h49l-28 -105h228l-12 -44h-228l-45 -166q89 107 193 107q76 0 121.5 -44.5t45.5 -117.5
q0 -28 -11 -72l-30 -112q-26 -95 -78.5 -141.5t-146.5 -46.5z" />
    <glyph glyph-name="afii10100" unicode="&#x453;" horiz-adv-x="460" 
d="M25 0l137 510h337l-12 -44h-288l-125 -466h-49zM277 595l124 133l62 -30l-135 -103h-51z" />
    <glyph glyph-name="afii10101" unicode="&#x454;" horiz-adv-x="563" 
d="M272 -12q-89 0 -155.5 60t-66.5 160q0 126 89.5 220t210.5 94q129 0 192 -108l-42 -24q-56 86 -153 86q-79 0 -145 -55.5t-89 -137.5h262l-11 -44h-260q-1 -10 -1 -28q0 -82 50.5 -129.5t121.5 -47.5q95 0 174 74l33 -32q-92 -88 -210 -88z" />
    <glyph glyph-name="afii10102" unicode="&#x455;" horiz-adv-x="495" 
d="M217 -11q-128 0 -216 88l35 35q81 -78 187 -78q51 0 91.5 28.5t40.5 72.5q0 31 -23.5 54t-87.5 47q-76 28 -109.5 58.5t-33.5 78.5q0 62 52.5 105t136.5 43q103 0 184 -68l-32 -37q-73 60 -157 60q-61 0 -96.5 -28t-35.5 -67q0 -31 23 -52t92 -48q76 -30 107.5 -61
t31.5 -77q0 -66 -56 -110t-134 -44z" />
    <glyph glyph-name="afii10103" unicode="&#x456;" horiz-adv-x="250" 
d="M32 0l137 510h49l-137 -510h-49zM199 643l18 67h61l-18 -67h-61z" />
    <glyph glyph-name="afii10104" unicode="&#x457;" horiz-adv-x="250" 
d="M92 595l22 80h69l-22 -80h-69zM255 595l22 80h69l-22 -80h-69zM32 0l137 510h49l-137 -510h-49z" />
    <glyph glyph-name="afii10105" unicode="&#x458;" horiz-adv-x="249" 
d="M-52 -163q-33 0 -63 10l12 44q28 -8 47 -8q56 0 75 69l150 558h49l-151 -562q-14 -53 -45 -82t-74 -29zM199 643l18 67h61l-18 -67h-61z" />
    <glyph glyph-name="afii10106" unicode="&#x459;" horiz-adv-x="900" 
d="M-3 -8q-42 0 -60 9l20 44q14 -7 36 -7q30 0 51 12t50 54t62 135.5t74 243.5l8 27h344l-55 -205h146q92 0 136 -44q33 -33 33 -86q0 -83 -65.5 -129t-179.5 -46h-201l125 466h-248l-4 -14q-34 -124 -63.5 -209.5t-54 -135t-51.5 -75.5t-49 -33t-54 -7zM457 44h136
q95 0 146 33.5t51 95.5q0 45 -35.5 66.5t-86.5 21.5h-153z" />
    <glyph glyph-name="afii10107" unicode="&#x45a;" horiz-adv-x="909" 
d="M25 0l137 510h49l-58 -218h331l58 218h49l-58 -218h149q78 0 123.5 -33t45.5 -94q0 -76 -66 -120.5t-179 -44.5h-201l67 248h-331l-67 -248h-49zM466 44h136q94 0 145.5 32t51.5 87q0 43 -35.5 64t-86.5 21h-156z" />
    <glyph glyph-name="afii10108" unicode="&#x45b;" horiz-adv-x="609" 
d="M25 0l156 581h-84l12 44h84l28 105h49l-28 -105h228l-12 -44h-228l-45 -166q89 107 193 107q76 0 121.5 -44.5t45.5 -117.5q0 -28 -11 -72l-76 -288h-49l78 292q8 30 8 63q0 57 -35 90t-96 33q-67 0 -129 -54t-84 -136l-77 -288h-49z" />
    <glyph glyph-name="afii10109" unicode="&#x45c;" horiz-adv-x="560" 
d="M25 0l137 510h49l-86 -321l396 321h71l-284 -228l152 -282h-57l-136 252l-160 -128l-33 -124h-49zM297 595l124 133l62 -30l-135 -103h-51z" />
    <glyph glyph-name="afii10110" unicode="&#x45e;" horiz-adv-x="568" 
d="M20 -163q-58 0 -108 35l27 40q36 -29 87 -29q40 0 78.5 27.5t84.5 92.5l-104 507h52l89 -456l307 456h59l-363 -528q-54 -78 -103.5 -111.5t-105.5 -33.5zM348 595q-52 0 -84 31.5t-34 81.5l42 9q5 -36 22.5 -54.5t54.5 -18.5q39 0 68 19.5t43 53.5l40 -9
q-16 -50 -58 -81.5t-94 -31.5z" />
    <glyph glyph-name="afii10193" unicode="&#x45f;" horiz-adv-x="603" 
d="M174 -144l39 144h-187l136 510h49l-124 -466h318l124 466h49l-136 -510h-179l-39 -144h-50z" />
    <glyph glyph-name="afii10050" unicode="&#x490;" horiz-adv-x="582" 
d="M36 0l188 700h383l43 160h44l-46 -208h-385l-175 -652h-52z" />
    <glyph glyph-name="afii10098" unicode="&#x491;" horiz-adv-x="460" 
d="M25 0l137 510h286l39 144h40l-40 -188h-288l-125 -466h-49z" />
    <glyph glyph-name="endash" unicode="&#x2013;" horiz-adv-x="528" 
d="M74 271l14 52h388l-14 -52h-388z" />
    <glyph glyph-name="emdash" unicode="&#x2014;" horiz-adv-x="898" 
d="M74 271l14 52h758l-14 -52h-758z" />
    <glyph glyph-name="quoteleft" unicode="&#x2018;" horiz-adv-x="231" 
d="M147 513l20 74q14 52 39.5 77.5t75.5 39.5l7 -24q-69 -24 -80 -82h27l-23 -85h-66z" />
    <glyph glyph-name="quoteright" unicode="&#x2019;" horiz-adv-x="231" 
d="M138 509l-7 24q69 24 80 82h-27l23 85h66l-20 -74q-15 -52 -40 -77.5t-75 -39.5z" />
    <glyph glyph-name="quotesinglbase" unicode="&#x201a;" horiz-adv-x="231" 
d="M-32 -106l-7 24q69 24 80 82h-27l23 85h66l-20 -74q-15 -52 -40 -77.5t-75 -39.5z" />
    <glyph glyph-name="quotedblleft" unicode="&#x201c;" horiz-adv-x="411" 
d="M146 513l20 74q14 52 39.5 77.5t75.5 39.5l7 -24q-69 -24 -80 -82h27l-23 -85h-66zM326 513l20 74q14 52 39.5 77.5t75.5 39.5l7 -24q-69 -24 -80 -82h27l-23 -85h-66z" />
    <glyph glyph-name="quotedblright" unicode="&#x201d;" horiz-adv-x="411" 
d="M127 509l-7 24q69 24 80 82h-27l23 85h66l-20 -74q-15 -52 -40 -77.5t-75 -39.5zM307 509l-7 24q69 24 80 82h-27l23 85h66l-20 -74q-15 -52 -40 -77.5t-75 -39.5z" />
    <glyph glyph-name="quotedblbase" unicode="&#x201e;" horiz-adv-x="412" 
d="M-32 -106l-7 24q69 24 80 82h-27l23 85h66l-20 -74q-15 -52 -40 -77.5t-75 -39.5zM149 -106l-7 24q69 24 80 82h-27l23 85h66l-20 -74q-15 -52 -40 -77.5t-75 -39.5z" />
    <glyph glyph-name="dagger" unicode="&#x2020;" horiz-adv-x="410" 
d="M160 238l81 286l-126 -7l12 45l122 -7l32 145h50l-46 -145l126 7l-12 -45l-124 7l-71 -286h-44z" />
    <glyph glyph-name="daggerdbl" unicode="&#x2021;" horiz-adv-x="430" 
d="M103 0l46 145l-126 -7l12 45l123 -7l42 174l51 174l-126 -7l12 45l122 -7l32 145h50l-46 -145l126 7l-12 -45l-124 7l-41 -174l-52 -174l127 7l-12 -45l-122 7l-32 -145h-50z" />
    <glyph glyph-name="bullet" unicode="&#x2022;" horiz-adv-x="470" 
d="M232 222q-46 0 -75.5 29.5t-29.5 79.5q0 61 42.5 106t100.5 45q46 0 75.5 -29.5t29.5 -79.5q0 -61 -42.5 -106t-100.5 -45z" />
    <glyph glyph-name="ellipsis" unicode="&#x2026;" horiz-adv-x="683" 
d="M14 0l23 85h66l-23 -85h-66zM240 0l23 85h66l-23 -85h-66zM466 0l23 85h66l-23 -85h-66z" />
    <glyph glyph-name="perthousand" unicode="&#x2030;" horiz-adv-x="1203" 
d="M65 0l682 700h60l-682 -700h-60zM588 -7q-60 0 -98.5 41.5t-38.5 101.5q0 86 56 152.5t135 66.5q60 0 98.5 -41.5t38.5 -101.5q0 -86 -56 -152.5t-135 -66.5zM592 36q56 0 97 53.5t41 117.5q0 48 -24 76.5t-68 28.5q-56 0 -97 -53.5t-41 -117.5q0 -48 24 -76.5t68 -28.5z
M970 -7q-60 0 -98.5 41.5t-38.5 101.5q0 86 56 152.5t135 66.5q60 0 98.5 -41.5t38.5 -101.5q0 -86 -56 -152.5t-135 -66.5zM974 36q56 0 97 53.5t41 117.5q0 48 -24 76.5t-68 28.5q-56 0 -97 -53.5t-41 -117.5q0 -48 24 -76.5t68 -28.5zM230 346q-60 0 -98.5 41.5
t-38.5 101.5q0 86 56 152.5t135 66.5q60 0 98.5 -41.5t38.5 -101.5q0 -86 -56 -152.5t-135 -66.5zM234 389q56 0 97 53.5t41 117.5q0 48 -24 76.5t-68 28.5q-56 0 -97 -53.5t-41 -117.5q0 -48 24 -76.5t68 -28.5z" />
    <glyph glyph-name="guilsinglleft" unicode="&#x2039;" horiz-adv-x="311" 
d="M149 42l-104 209l2 8l216 209l36 -28l-192 -192l83 -184z" />
    <glyph glyph-name="guilsinglright" unicode="&#x203a;" horiz-adv-x="311" 
d="M47 41l-36 28l192 192l-83 184l41 22l104 -209l-2 -8z" />
    <glyph glyph-name="fraction" unicode="&#x2044;" horiz-adv-x="550" 
d="M-83 -98l697 856h59l-697 -856h-59z" />
    <glyph glyph-name="Euro" unicode="&#x20ac;" horiz-adv-x="684" 
d="M372 -12q-103 0 -170.5 69.5t-72.5 187.5h-92l13 48h80q3 65 21 123h-69l13 48h73q45 111 130.5 179.5t194.5 68.5q83 0 139 -44t80 -115l-45 -18q-27 64 -69.5 97t-113.5 33q-82 0 -151.5 -55t-109.5 -146h301l-13 -48h-306q-19 -62 -22 -123h296l-13 -48h-283
q5 -95 55 -152.5t135 -57.5q113 0 201 98l35 -30q-103 -115 -237 -115z" />
    <glyph glyph-name="afii61352" unicode="&#x2116;" horiz-adv-x="953" 
d="M36 0l188 700h53l242 -611l164 611h52l-187 -700h-44l-248 626l-168 -626h-52zM681 174l11 40h238l-11 -40h-238zM854 292q-52 0 -84.5 34t-32.5 83q0 59 43.5 103t101.5 44q53 0 84.5 -33.5t31.5 -82.5q0 -60 -42.5 -104t-101.5 -44zM855 331q42 0 71 32t29 77
q0 34 -20.5 55.5t-53.5 21.5q-41 0 -71 -32t-30 -76q0 -34 21 -56t54 -22z" />
    <glyph glyph-name="published" unicode="&#x2117;" horiz-adv-x="830" 
d="M439 -12q-151 0 -256 106t-105 255t106 256t257 107t256 -106t105 -255t-106 -256t-257 -107zM439 16q141 0 237 98t96 237t-95 236t-236 97t-237 -98t-96 -237t95 -236t236 -97zM321 175v366h141q66 0 104.5 -30.5t38.5 -85.5q0 -59 -43 -90.5t-107 -31.5h-90v-128h-44z
M365 344h91q48 0 76 20.5t28 58.5q0 77 -101 77h-94v-156z" />
    <glyph glyph-name="trademark" unicode="&#x2122;" horiz-adv-x="690" 
d="M154 392l78 274h-101l10 34h237l-10 -34h-101l-78 -274h-35zM360 392l88 308h32l72 -183l168 183h41l-88 -308h-35l71 246l-167 -178h-5l-71 178l-71 -246h-35z" />
    <glyph glyph-name="partialdiff" unicode="&#x2202;" 
d="M0 0v700h500v-700h-500zM81 49h339l-170 255zM49 96l171 254l-171 254v-508zM450 96v508l-171 -254zM250 395l170 255h-339z" />
    <glyph glyph-name="Delta" unicode="&#x2206;" horiz-adv-x="790" 
d="M-10 0l504 705h50l128 -705h-682zM81 48h529l-103 600z" />
    <glyph glyph-name="product" unicode="&#x220f;" 
d="M0 0v700h500v-700h-500zM81 49h339l-170 255zM49 96l171 254l-171 254v-508zM450 96v508l-171 -254zM250 395l170 255h-339z" />
    <glyph glyph-name="summation" unicode="&#x2211;" 
d="M0 0v700h500v-700h-500zM81 49h339l-170 255zM49 96l171 254l-171 254v-508zM450 96v508l-171 -254zM250 395l170 255h-339z" />
    <glyph glyph-name="minus" unicode="&#x2212;" horiz-adv-x="640" 
d="M123 328l14 51h454l-14 -51h-454z" />
    <glyph glyph-name="radical" unicode="&#x221a;" horiz-adv-x="481" 
d="M624 786l-478 -1000h-55l-75 346l-51 -22l-8 40l99 43l74 -346l445 939h49z" />
    <glyph glyph-name="infinity" unicode="&#x221e;" horiz-adv-x="722" 
d="M200 217q-59 0 -95.5 39t-36.5 98t36 100t94 41q16 0 31.5 -3t31.5 -11.5t27.5 -14.5t28.5 -19.5t24.5 -20t25.5 -23t23 -20.5q11 9 40 36t44.5 39t44 24.5t56.5 12.5q59 0 97 -40.5t38 -100.5q0 -61 -35.5 -99t-96.5 -38q-50 0 -93.5 28t-94.5 77q-5 -4 -32.5 -27.5
t-38 -31t-33.5 -22t-43 -19.5t-43 -5zM201 265q61 0 155 89q-7 6 -33 27t-41 32.5t-39.5 22.5t-44.5 11q-37 0 -59.5 -27.5t-22.5 -65.5q0 -40 23 -64.5t62 -24.5zM580 265q38 0 60 25.5t22 63.5q0 41 -22 67t-63 26q-56 0 -154 -93q2 -2 18.5 -16.5t21.5 -18.5t20 -15.5
t23.5 -16t22 -11t26 -9t25.5 -2.5z" />
    <glyph glyph-name="integral" unicode="&#x222b;" 
d="M0 0v700h500v-700h-500zM81 49h339l-170 255zM49 96l171 254l-171 254v-508zM450 96v508l-171 -254zM250 395l170 255h-339z" />
    <glyph glyph-name="approxequal" unicode="&#x2248;" horiz-adv-x="640" 
d="M642 500q-20 -55 -59.5 -92t-92.5 -37q-46 0 -136.5 37t-126.5 37q-34 0 -63 -24t-43 -59h-38q57 131 154 131q45 0 135.5 -37t128.5 -37q35 0 62 22.5t42 58.5h37zM599 339q-20 -54 -60 -91.5t-92 -37.5q-47 0 -136.5 37t-126.5 37q-34 0 -63 -24t-43 -59h-38
q57 131 153 131q46 0 136.5 -37t128.5 -37q35 0 62 22.5t42 58.5h37z" />
    <glyph glyph-name="notequal" unicode="&#x2260;" horiz-adv-x="640" 
d="M141 439l14 51h269l100 124l36 -22l-82 -102h131l-14 -51h-158l-139 -174h251l-14 -51h-279l-94 -117l-35 23l75 94h-121l14 51h149l139 174h-242z" />
    <glyph glyph-name="lessequal" unicode="&#x2264;" horiz-adv-x="640" 
d="M502 97l-445 193l15 54l548 193l-14 -57l-476 -166l387 -166zM478 5h-497l13 48h497z" />
    <glyph glyph-name="greaterequal" unicode="&#x2265;" horiz-adv-x="640" 
d="M567 290l-549 -193l15 58l474 166l-385 166l14 50l446 -193zM491 5h-497l13 48h497z" />
    <glyph glyph-name="lozenge" unicode="&#x25ca;" horiz-adv-x="640" 
d="M554 356l-169 -391h-53l-167 391l167 391h53zM501 356l-142 335l-140 -335l140 -335z" />
    <glyph glyph-name="cyrBreve" unicode="&#xf6d1;" 
d="M348 595q-52 0 -84 31.5t-34 81.5l42 9q5 -36 22.5 -54.5t54.5 -18.5q39 0 68 19.5t43 53.5l40 -9q-16 -50 -58 -81.5t-94 -31.5z" />
    <glyph glyph-name="cyrbreve" unicode="&#xf6d4;" 
d="M348 595q-52 0 -84 31.5t-34 81.5l42 9q5 -36 22.5 -54.5t54.5 -18.5q39 0 68 19.5t43 53.5l40 -9q-16 -50 -58 -81.5t-94 -31.5z" />
    <glyph glyph-name="apple" unicode="&#xf8ff;" 
d="M0 0v700h500v-700h-500zM81 49h339l-170 255zM49 96l171 254l-171 254v-508zM450 96v508l-171 -254zM250 395l170 255h-339z" />
    <glyph glyph-name="ff" unicode="&#xfb00;" horiz-adv-x="724" 
d="M55 0l125 465h-74l12 45h74l20 74q39 146 163 146q57 0 102 -24l-12 -44q-51 24 -92 24q-86 0 -115 -113l-17 -63h184l-12 -45h-184l-125 -465h-49zM417 0l125 465h-74l12 45h74l20 74q39 146 163 146q57 0 102 -24l-12 -44q-51 24 -92 24q-85 0 -115 -113l-17 -63h184
l-12 -45h-184l-125 -465h-49z" />
    <glyph glyph-name="nbspace" horiz-adv-x="300" 
 />
    </font>
</defs>
</svg>
